<?xml version="1.0" encoding="UTF-8" standalone="no"?>
<!DOCTYPE svg PUBLIC "-//W3C//DTD SVG 1.1//EN" "http://www.w3.org/Graphics/SVG/1.1/DTD/svg11.dtd">
<svg width="100%" height="100%" viewBox="0 0 1219 317" version="1.1" xmlns="http://www.w3.org/2000/svg" xmlns:xlink="http://www.w3.org/1999/xlink" xml:space="preserve" xmlns:serif="http://www.serif.com/" style="fill-rule:evenodd;clip-rule:evenodd;stroke-linejoin:round;stroke-miterlimit:2;">
    <g transform="matrix(1,0,0,1,488,20)">
        <path d="M17.275,-4.844L6.797,-4.844L6.797,6.035L5.234,6.035L5.234,-6.523L30.879,-6.523L30.879,17.877L39.6,17.877C40.693,17.877 41.536,18.313 42.129,19.185C42.656,19.966 42.92,20.904 42.92,21.998L42.92,67.516L41.357,67.516L41.357,21.998C41.357,21.177 41.208,20.569 40.908,20.171C40.615,19.761 40.179,19.556 39.6,19.556L30.879,19.556L30.879,67.516L29.316,67.516L29.316,-4.844L18.838,-4.844L18.838,67.516L17.275,67.516L17.275,-4.844ZM209.932,67.516L209.932,-4.844L204.502,-4.844L204.502,-6.523L211.494,-6.523L211.494,17.877L220.215,17.877C221.309,17.877 222.152,18.313 222.744,19.185C223.271,19.966 223.535,20.904 223.535,21.998L223.535,67.516L221.973,67.516L221.973,21.998C221.973,21.177 221.823,20.569 221.523,20.171C221.23,19.761 220.794,19.556 220.215,19.556L211.494,19.556L211.494,67.516L209.932,67.516ZM234.014,67.516L234.014,-4.844L228.584,-4.844L228.584,-6.523L235.576,-6.523L235.576,67.516L234.014,67.516ZM53.398,67.516L53.398,19.556L47.969,19.556L47.969,17.877L54.961,17.877L54.961,67.516L53.398,67.516ZM101.563,67.516L101.563,19.556L96.133,19.556L96.133,17.877L103.125,17.877L103.125,67.516L101.563,67.516ZM173.809,67.516L173.809,19.556L168.379,19.556L168.379,17.877L184.092,17.877C185.186,17.877 186.029,18.313 186.621,19.185C187.148,19.966 187.412,20.904 187.412,21.998L187.412,67.516L185.85,67.516L185.85,21.998C185.85,21.177 185.7,20.569 185.4,20.171C185.107,19.761 184.671,19.556 184.092,19.556L175.371,19.556L175.371,67.516L173.809,67.516ZM160.01,19.556L151.289,19.556L151.289,30.435L149.727,30.435L149.727,17.877L160.01,17.877C161.104,17.877 161.947,18.313 162.539,19.185C163.066,19.966 163.33,20.904 163.33,21.998L163.33,68.356L153.047,68.356C151.953,68.356 151.11,67.92 150.518,67.048C149.99,66.266 149.727,65.329 149.727,64.235L149.727,46.398C149.727,45.349 149.99,44.412 150.518,43.585C151.11,42.713 151.953,42.277 153.047,42.277L161.768,42.277L161.768,21.998C161.768,21.177 161.618,20.569 161.318,20.171C161.025,19.761 160.589,19.556 160.01,19.556ZM161.768,66.677L161.768,43.956L153.047,43.956C152.467,43.956 152.03,44.161 151.733,44.571C151.437,44.982 151.289,45.59 151.289,46.398L151.289,64.235C151.289,65.042 151.437,65.651 151.733,66.061C152.03,66.471 152.467,66.677 153.047,66.677L161.768,66.677ZM65.439,39.835L65.439,21.998C65.439,20.949 65.703,20.012 66.23,19.185C66.823,18.313 67.666,17.877 68.76,17.877L79.043,17.877L79.043,30.435L77.48,30.435L77.48,19.556L68.76,19.556C68.18,19.556 67.743,19.761 67.446,20.171C67.15,20.582 67.002,21.19 67.002,21.998L67.002,39.835C67.002,40.642 67.15,41.251 67.446,41.661C67.743,42.071 68.18,42.277 68.76,42.277L75.723,42.277C76.816,42.277 77.66,42.713 78.252,43.585C78.779,44.366 79.043,45.304 79.043,46.398L79.043,64.235C79.043,65.329 78.779,66.266 78.252,67.048C77.66,67.92 76.816,68.356 75.723,68.356L65.439,68.356L65.439,54.7L67.002,54.7L67.002,66.677L75.723,66.677C76.302,66.677 76.74,66.471 77.036,66.061C77.332,65.651 77.48,65.042 77.48,64.235L77.48,46.398C77.48,45.577 77.331,44.969 77.031,44.571C76.738,44.161 76.302,43.956 75.723,43.956L68.76,43.956C67.666,43.956 66.823,43.52 66.23,42.648C65.703,41.866 65.439,40.929 65.439,39.835ZM113.604,39.835L113.604,21.998C113.604,20.949 113.867,20.012 114.395,19.185C114.987,18.313 115.83,17.877 116.924,17.877L127.207,17.877L127.207,30.435L125.645,30.435L125.645,19.556L116.924,19.556C116.344,19.556 115.907,19.761 115.61,20.171C115.314,20.582 115.166,21.19 115.166,21.998L115.166,39.835C115.166,40.642 115.314,41.251 115.61,41.661C115.907,42.071 116.344,42.277 116.924,42.277L123.887,42.277C124.98,42.277 125.824,42.713 126.416,43.585C126.943,44.366 127.207,45.304 127.207,46.398L127.207,64.235C127.207,65.329 126.943,66.266 126.416,67.048C125.824,67.92 124.98,68.356 123.887,68.356L113.604,68.356L113.604,54.7L115.166,54.7L115.166,66.677L123.887,66.677C124.466,66.677 124.904,66.471 125.2,66.061C125.496,65.651 125.645,65.042 125.645,64.235L125.645,46.398C125.645,45.577 125.495,44.969 125.195,44.571C124.902,44.161 124.466,43.956 123.887,43.956L116.924,43.956C115.83,43.956 114.987,43.52 114.395,42.648C113.867,41.866 113.604,40.929 113.604,39.835ZM51.963,-3.945L55.4,-3.945L55.4,0L51.963,0L51.963,-3.945ZM100.127,-3.945L103.564,-3.945L103.564,0L100.127,0L100.127,-3.945Z" style="fill:rgb(217,4,41);"/>
    </g>
    <g transform="matrix(1,0,0,1,0,166.4)">
        <path d="M7.422,-6.885C7.93,-6.755 8.363,-6.509 8.721,-6.147C9.079,-5.786 9.525,-5.065 10.059,-3.984L12.041,0L9.922,0L8.184,-3.682C7.682,-4.73 7.231,-5.405 6.831,-5.708C6.431,-6.011 5.908,-6.162 5.264,-6.162L3.379,-6.162L3.379,0L1.396,0L1.396,-14.58L5.459,-14.58C7.061,-14.58 8.288,-14.219 9.141,-13.496C9.993,-12.773 10.42,-11.729 10.42,-10.361C10.42,-9.398 10.158,-8.612 9.634,-8.003C9.11,-7.394 8.372,-7.021 7.422,-6.885ZM3.379,-12.959L3.379,-7.783L5.537,-7.783C6.481,-7.783 7.184,-7.995 7.646,-8.418C8.109,-8.841 8.34,-9.489 8.34,-10.361C8.34,-11.201 8.094,-11.844 7.603,-12.29C7.111,-12.736 6.396,-12.959 5.459,-12.959L3.379,-12.959ZM15.127,-10.898L19.727,-10.898L19.727,-1.396L23.291,-1.396L23.291,0L14.365,0L14.365,-1.396L17.93,-1.396L17.93,-9.502L15.127,-9.502L15.127,-10.898ZM17.93,-15.146L19.727,-15.146L19.727,-12.881L17.93,-12.881L17.93,-15.146ZM34.443,-0.557C33.962,-0.277 33.465,-0.067 32.954,0.073C32.443,0.213 31.921,0.283 31.387,0.283C29.694,0.283 28.371,-0.225 27.417,-1.24C26.463,-2.256 25.986,-3.662 25.986,-5.459C25.986,-7.256 26.463,-8.662 27.417,-9.678C28.371,-10.693 29.694,-11.201 31.387,-11.201C31.914,-11.201 32.428,-11.133 32.93,-10.996C33.431,-10.859 33.936,-10.648 34.443,-10.361L34.443,-8.477C33.968,-8.9 33.491,-9.206 33.013,-9.395C32.534,-9.583 31.992,-9.678 31.387,-9.678C30.26,-9.678 29.395,-9.313 28.789,-8.584C28.184,-7.855 27.881,-6.813 27.881,-5.459C27.881,-4.111 28.185,-3.071 28.794,-2.339C29.403,-1.606 30.267,-1.24 31.387,-1.24C32.012,-1.24 32.572,-1.336 33.066,-1.528C33.561,-1.72 34.02,-2.018 34.443,-2.422L34.443,-0.557ZM46.387,-6.777L46.387,0L44.58,0L44.58,-6.777C44.58,-7.76 44.408,-8.483 44.063,-8.945C43.717,-9.408 43.177,-9.639 42.441,-9.639C41.602,-9.639 40.955,-9.341 40.503,-8.745C40.05,-8.149 39.824,-7.295 39.824,-6.182L39.824,0L38.027,0L38.027,-15.195L39.824,-15.195L39.824,-9.297C40.143,-9.922 40.576,-10.396 41.123,-10.718C41.67,-11.04 42.318,-11.201 43.066,-11.201C44.18,-11.201 45.011,-10.835 45.562,-10.103C46.112,-9.37 46.387,-8.262 46.387,-6.777ZM70.566,-0.557C70.085,-0.277 69.588,-0.067 69.077,0.073C68.566,0.213 68.044,0.283 67.51,0.283C65.817,0.283 64.494,-0.225 63.54,-1.24C62.586,-2.256 62.109,-3.662 62.109,-5.459C62.109,-7.256 62.586,-8.662 63.54,-9.678C64.494,-10.693 65.817,-11.201 67.51,-11.201C68.037,-11.201 68.551,-11.133 69.053,-10.996C69.554,-10.859 70.059,-10.648 70.566,-10.361L70.566,-8.477C70.091,-8.9 69.614,-9.206 69.136,-9.395C68.657,-9.583 68.115,-9.678 67.51,-9.678C66.383,-9.678 65.518,-9.313 64.912,-8.584C64.307,-7.855 64.004,-6.813 64.004,-5.459C64.004,-4.111 64.308,-3.071 64.917,-2.339C65.526,-1.606 66.39,-1.24 67.51,-1.24C68.135,-1.24 68.695,-1.336 69.189,-1.528C69.684,-1.72 70.143,-2.018 70.566,-2.422L70.566,-0.557ZM82.588,-6.24L82.588,0L80.781,0L80.781,-1.621C80.397,-0.97 79.914,-0.49 79.331,-0.181C78.748,0.129 78.04,0.283 77.207,0.283C76.094,0.283 75.205,-0.031 74.541,-0.659C73.877,-1.287 73.545,-2.129 73.545,-3.184C73.545,-4.401 73.953,-5.326 74.771,-5.957C75.588,-6.589 76.787,-6.904 78.369,-6.904L80.781,-6.904L80.781,-7.188C80.775,-8.06 80.553,-8.693 80.117,-9.087C79.681,-9.481 78.984,-9.678 78.027,-9.678C77.415,-9.678 76.797,-9.59 76.172,-9.414C75.547,-9.238 74.938,-8.981 74.346,-8.643L74.346,-10.439C75.01,-10.693 75.646,-10.884 76.255,-11.011C76.864,-11.138 77.454,-11.201 78.027,-11.201C78.932,-11.201 79.705,-11.068 80.347,-10.801C80.988,-10.534 81.507,-10.133 81.904,-9.6C82.152,-9.274 82.327,-8.872 82.432,-8.394C82.536,-7.915 82.588,-7.197 82.588,-6.24ZM80.781,-5.498L78.506,-5.498C77.458,-5.498 76.668,-5.314 76.138,-4.946C75.607,-4.578 75.342,-4.03 75.342,-3.301C75.342,-2.643 75.54,-2.132 75.938,-1.768C76.335,-1.403 76.885,-1.221 77.588,-1.221C78.577,-1.221 79.355,-1.564 79.922,-2.251C80.488,-2.938 80.775,-3.887 80.781,-5.098L80.781,-5.498ZM94.551,-6.777L94.551,0L92.744,0L92.744,-6.777C92.744,-7.76 92.572,-8.483 92.227,-8.945C91.882,-9.408 91.341,-9.639 90.605,-9.639C89.766,-9.639 89.119,-9.341 88.667,-8.745C88.215,-8.149 87.988,-7.295 87.988,-6.182L87.988,0L86.191,0L86.191,-10.938L87.988,-10.938L87.988,-9.297C88.307,-9.922 88.74,-10.396 89.287,-10.718C89.834,-11.04 90.482,-11.201 91.23,-11.201C92.344,-11.201 93.175,-10.835 93.726,-10.103C94.276,-9.37 94.551,-8.262 94.551,-6.777ZM116.748,-9.541L116.748,-15.195L118.545,-15.195L118.545,0L116.748,0L116.748,-1.377C116.449,-0.837 116.05,-0.425 115.552,-0.142C115.054,0.142 114.479,0.283 113.828,0.283C112.507,0.283 111.466,-0.229 110.708,-1.255C109.95,-2.28 109.57,-3.695 109.57,-5.498C109.57,-7.275 109.951,-8.67 110.713,-9.683C111.475,-10.695 112.513,-11.201 113.828,-11.201C114.486,-11.201 115.065,-11.06 115.566,-10.776C116.068,-10.493 116.462,-10.081 116.748,-9.541ZM111.465,-5.459C111.465,-4.066 111.686,-3.014 112.129,-2.305C112.572,-1.595 113.226,-1.24 114.092,-1.24C114.958,-1.24 115.617,-1.598 116.069,-2.314C116.522,-3.031 116.748,-4.079 116.748,-5.459C116.748,-6.846 116.522,-7.896 116.069,-8.608C115.617,-9.321 114.958,-9.678 114.092,-9.678C113.226,-9.678 112.572,-9.323 112.129,-8.613C111.686,-7.904 111.465,-6.852 111.465,-5.459ZM126.426,-11.201C127.943,-11.201 129.103,-10.71 129.907,-9.727C130.711,-8.743 131.113,-7.321 131.113,-5.459C131.113,-3.59 130.713,-2.166 129.912,-1.187C129.111,-0.207 127.949,0.283 126.426,0.283C124.909,0.283 123.75,-0.207 122.949,-1.187C122.148,-2.166 121.748,-3.59 121.748,-5.459C121.748,-7.321 122.148,-8.743 122.949,-9.727C123.75,-10.71 124.909,-11.201 126.426,-11.201ZM126.426,-9.678C125.514,-9.678 124.824,-9.323 124.355,-8.613C123.887,-7.904 123.652,-6.852 123.652,-5.459C123.652,-4.072 123.887,-3.022 124.355,-2.31C124.824,-1.597 125.514,-1.24 126.426,-1.24C127.344,-1.24 128.037,-1.597 128.506,-2.31C128.975,-3.022 129.209,-4.072 129.209,-5.459C129.209,-6.852 128.975,-7.904 128.506,-8.613C128.037,-9.323 127.344,-9.678 126.426,-9.678ZM154.834,-6.24L154.834,0L153.027,0L153.027,-1.621C152.643,-0.97 152.16,-0.49 151.577,-0.181C150.994,0.129 150.286,0.283 149.453,0.283C148.34,0.283 147.451,-0.031 146.787,-0.659C146.123,-1.287 145.791,-2.129 145.791,-3.184C145.791,-4.401 146.2,-5.326 147.017,-5.957C147.834,-6.589 149.033,-6.904 150.615,-6.904L153.027,-6.904L153.027,-7.188C153.021,-8.06 152.799,-8.693 152.363,-9.087C151.927,-9.481 151.23,-9.678 150.273,-9.678C149.661,-9.678 149.043,-9.59 148.418,-9.414C147.793,-9.238 147.184,-8.981 146.592,-8.643L146.592,-10.439C147.256,-10.693 147.892,-10.884 148.501,-11.011C149.11,-11.138 149.701,-11.201 150.273,-11.201C151.178,-11.201 151.951,-11.068 152.593,-10.801C153.234,-10.534 153.753,-10.133 154.15,-9.6C154.398,-9.274 154.574,-8.872 154.678,-8.394C154.782,-7.915 154.834,-7.197 154.834,-6.24ZM153.027,-5.498L150.752,-5.498C149.704,-5.498 148.914,-5.314 148.384,-4.946C147.853,-4.578 147.588,-4.03 147.588,-3.301C147.588,-2.643 147.786,-2.132 148.184,-1.768C148.581,-1.403 149.131,-1.221 149.834,-1.221C150.824,-1.221 151.602,-1.564 152.168,-2.251C152.734,-2.938 153.021,-3.887 153.027,-5.098L153.027,-5.498ZM172.236,-1.377L172.236,4.16L170.43,4.16L170.43,-10.938L172.236,-10.938L172.236,-9.541C172.536,-10.081 172.935,-10.493 173.433,-10.776C173.931,-11.06 174.505,-11.201 175.156,-11.201C176.478,-11.201 177.515,-10.69 178.267,-9.668C179.019,-8.646 179.395,-7.23 179.395,-5.42C179.395,-3.643 179.017,-2.248 178.262,-1.235C177.507,-0.223 176.471,0.283 175.156,0.283C174.492,0.283 173.911,0.142 173.413,-0.142C172.915,-0.425 172.523,-0.837 172.236,-1.377ZM177.51,-5.459C177.51,-6.852 177.29,-7.904 176.851,-8.613C176.411,-9.323 175.758,-9.678 174.893,-9.678C174.02,-9.678 173.359,-9.321 172.91,-8.608C172.461,-7.896 172.236,-6.846 172.236,-5.459C172.236,-4.079 172.461,-3.031 172.91,-2.314C173.359,-1.598 174.02,-1.24 174.893,-1.24C175.758,-1.24 176.411,-1.595 176.851,-2.305C177.29,-3.014 177.51,-4.066 177.51,-5.459ZM191.895,-8.682C191.51,-8.981 191.12,-9.199 190.723,-9.336C190.326,-9.473 189.889,-9.541 189.414,-9.541C188.294,-9.541 187.438,-9.189 186.846,-8.486C186.253,-7.783 185.957,-6.768 185.957,-5.439L185.957,0L184.15,0L184.15,-10.938L185.957,-10.938L185.957,-8.799C186.257,-9.574 186.717,-10.168 187.339,-10.581C187.961,-10.994 188.698,-11.201 189.551,-11.201C189.993,-11.201 190.407,-11.146 190.791,-11.035C191.175,-10.924 191.543,-10.752 191.895,-10.518L191.895,-8.682ZM203.594,-6.367L203.594,-5.488L195.811,-5.488L195.811,-5.43C195.758,-3.939 196.043,-2.868 196.665,-2.217C197.287,-1.566 198.164,-1.24 199.297,-1.24C199.87,-1.24 200.469,-1.331 201.094,-1.514C201.719,-1.696 202.386,-1.973 203.096,-2.344L203.096,-0.557C202.412,-0.277 201.753,-0.067 201.118,0.073C200.483,0.213 199.87,0.283 199.277,0.283C197.578,0.283 196.25,-0.226 195.293,-1.245C194.336,-2.264 193.857,-3.669 193.857,-5.459C193.857,-7.204 194.326,-8.597 195.264,-9.639C196.201,-10.68 197.451,-11.201 199.014,-11.201C200.407,-11.201 201.506,-10.729 202.31,-9.785C203.114,-8.841 203.542,-7.702 203.594,-6.367ZM201.797,-6.895C201.719,-7.65 201.444,-8.302 200.972,-8.853C200.5,-9.403 199.821,-9.678 198.936,-9.678C198.07,-9.678 197.357,-9.391 196.797,-8.818C196.237,-8.245 195.931,-7.601 195.879,-6.885L201.797,-6.895ZM210.693,-14.043L210.693,-10.938L214.775,-10.938L214.775,-9.541L210.693,-9.541L210.693,-3.604C210.693,-2.796 210.846,-2.233 211.152,-1.914C211.458,-1.595 211.992,-1.436 212.754,-1.436L214.775,-1.436L214.775,0L212.578,0C211.23,0 210.28,-0.27 209.727,-0.811C209.173,-1.351 208.896,-2.282 208.896,-3.604L208.896,-9.541L205.977,-9.541L205.977,-10.938L208.896,-10.938L208.896,-14.043L210.693,-14.043ZM222.734,-14.043L222.734,-10.938L226.816,-10.938L226.816,-9.541L222.734,-9.541L222.734,-3.604C222.734,-2.796 222.887,-2.233 223.193,-1.914C223.499,-1.595 224.033,-1.436 224.795,-1.436L226.816,-1.436L226.816,0L224.619,0C223.271,0 222.321,-0.27 221.768,-0.811C221.214,-1.351 220.938,-2.282 220.938,-3.604L220.938,-9.541L218.018,-9.541L218.018,-10.938L220.938,-10.938L220.938,-14.043L222.734,-14.043ZM237.158,-3.516C236.859,-2.754 236.478,-1.751 236.016,-0.508C235.371,1.211 234.938,2.259 234.717,2.637C234.417,3.145 234.043,3.525 233.594,3.779C233.145,4.033 232.62,4.16 232.021,4.16L230.576,4.16L230.576,2.656L231.641,2.656C232.168,2.656 232.581,2.503 232.881,2.197C233.18,1.891 233.561,1.1 234.023,-0.176L229.795,-10.938L231.699,-10.938L234.941,-2.383L238.135,-10.938L240.039,-10.938L237.158,-3.516ZM265.516,-9.541L266.639,-15.195L268.436,-15.195L265.477,0L263.68,0L263.944,-1.377C263.521,-0.83 263.041,-0.417 262.504,-0.137C261.967,0.143 261.373,0.283 260.721,0.283C259.66,0.283 258.835,-0.059 258.246,-0.742C257.657,-1.426 257.362,-2.38 257.362,-3.604C257.362,-4.535 257.492,-5.47 257.753,-6.411C258.013,-7.352 258.368,-8.174 258.817,-8.877C259.305,-9.645 259.88,-10.225 260.541,-10.615C261.202,-11.006 261.936,-11.201 262.743,-11.201C263.374,-11.201 263.928,-11.06 264.403,-10.776C264.878,-10.493 265.249,-10.081 265.516,-9.541ZM262.899,-9.678C262.326,-9.678 261.822,-9.536 261.386,-9.253C260.949,-8.97 260.582,-8.545 260.282,-7.979C259.963,-7.393 259.716,-6.727 259.54,-5.981C259.364,-5.236 259.276,-4.489 259.276,-3.74C259.276,-2.907 259.442,-2.282 259.774,-1.865C260.106,-1.449 260.601,-1.24 261.259,-1.24C261.812,-1.24 262.312,-1.387 262.758,-1.68C263.204,-1.973 263.583,-2.406 263.895,-2.979C264.214,-3.545 264.465,-4.204 264.647,-4.956C264.83,-5.708 264.921,-6.455 264.921,-7.197C264.921,-7.979 264.743,-8.587 264.388,-9.023C264.034,-9.46 263.537,-9.678 262.899,-9.678ZM277.626,-0.557C276.942,-0.277 276.275,-0.067 275.624,0.073C274.973,0.213 274.312,0.283 273.641,0.283C272.19,0.283 271.086,-0.08 270.331,-0.806C269.576,-1.532 269.198,-2.591 269.198,-3.984C269.198,-5 269.393,-5.996 269.784,-6.973C270.175,-7.949 270.715,-8.792 271.405,-9.502C271.945,-10.062 272.543,-10.488 273.197,-10.781C273.851,-11.074 274.533,-11.221 275.243,-11.221C276.454,-11.221 277.422,-10.848 278.148,-10.103C278.874,-9.357 279.237,-8.363 279.237,-7.119C279.237,-6.898 279.221,-6.623 279.188,-6.294C279.156,-5.965 279.1,-5.547 279.022,-5.039L271.141,-5.039C271.102,-4.831 271.073,-4.642 271.054,-4.473C271.034,-4.303 271.024,-4.154 271.024,-4.023C271.024,-3.118 271.275,-2.428 271.776,-1.953C272.277,-1.478 273.007,-1.24 273.964,-1.24C274.537,-1.24 275.163,-1.333 275.844,-1.519C276.524,-1.704 277.235,-1.979 277.977,-2.344L277.626,-0.557ZM277.401,-6.436C277.44,-6.611 277.466,-6.756 277.479,-6.87C277.492,-6.984 277.499,-7.093 277.499,-7.197C277.499,-7.979 277.287,-8.587 276.864,-9.023C276.441,-9.46 275.852,-9.678 275.096,-9.678C274.296,-9.678 273.565,-9.385 272.904,-8.799C272.243,-8.213 271.77,-7.425 271.483,-6.436L277.401,-6.436ZM289.462,-0.498C288.986,-0.244 288.477,-0.05 287.933,0.083C287.39,0.216 286.825,0.283 286.239,0.283C284.781,0.283 283.677,-0.083 282.929,-0.815C282.18,-1.548 281.805,-2.63 281.805,-4.063C281.805,-5.033 281.98,-5.985 282.328,-6.919C282.676,-7.853 283.147,-8.639 283.739,-9.277C284.345,-9.922 285.01,-10.404 285.736,-10.723C286.462,-11.042 287.258,-11.201 288.124,-11.201C288.703,-11.201 289.263,-11.131 289.804,-10.991C290.344,-10.851 290.871,-10.641 291.386,-10.361L291.024,-8.584C290.595,-8.962 290.152,-9.238 289.696,-9.414C289.24,-9.59 288.736,-9.678 288.182,-9.678C287.466,-9.678 286.832,-9.533 286.278,-9.243C285.725,-8.953 285.253,-8.519 284.862,-7.939C284.498,-7.406 284.213,-6.795 284.008,-6.108C283.803,-5.422 283.7,-4.74 283.7,-4.063C283.7,-3.125 283.923,-2.42 284.369,-1.948C284.815,-1.476 285.481,-1.24 286.366,-1.24C286.991,-1.24 287.592,-1.341 288.168,-1.543C288.744,-1.745 289.302,-2.051 289.843,-2.461L289.462,-0.498ZM301.708,-0.557C301.024,-0.277 300.357,-0.067 299.706,0.073C299.055,0.213 298.394,0.283 297.723,0.283C296.272,0.283 295.168,-0.08 294.413,-0.806C293.658,-1.532 293.28,-2.591 293.28,-3.984C293.28,-5 293.475,-5.996 293.866,-6.973C294.257,-7.949 294.797,-8.792 295.487,-9.502C296.027,-10.062 296.625,-10.488 297.279,-10.781C297.933,-11.074 298.615,-11.221 299.325,-11.221C300.536,-11.221 301.504,-10.848 302.23,-10.103C302.956,-9.357 303.319,-8.363 303.319,-7.119C303.319,-6.898 303.303,-6.623 303.27,-6.294C303.238,-5.965 303.182,-5.547 303.104,-5.039L295.223,-5.039C295.184,-4.831 295.155,-4.642 295.136,-4.473C295.116,-4.303 295.106,-4.154 295.106,-4.023C295.106,-3.118 295.357,-2.428 295.858,-1.953C296.36,-1.478 297.089,-1.24 298.046,-1.24C298.619,-1.24 299.245,-1.333 299.926,-1.519C300.606,-1.704 301.317,-1.979 302.059,-2.344L301.708,-0.557ZM301.483,-6.436C301.522,-6.611 301.548,-6.756 301.561,-6.87C301.574,-6.984 301.581,-7.093 301.581,-7.197C301.581,-7.979 301.369,-8.587 300.946,-9.023C300.523,-9.46 299.934,-9.678 299.179,-9.678C298.378,-9.678 297.647,-9.385 296.986,-8.799C296.325,-8.213 295.852,-7.425 295.565,-6.436L301.483,-6.436ZM314.862,-6.777L313.544,0L311.747,0L313.065,-6.787L313.095,-6.924C313.192,-7.386 313.241,-7.744 313.241,-7.998C313.241,-8.525 313.09,-8.931 312.787,-9.214C312.484,-9.497 312.05,-9.639 311.483,-9.639C310.656,-9.639 309.953,-9.336 309.374,-8.73C308.794,-8.125 308.397,-7.275 308.182,-6.182L306.981,0L305.184,0L307.323,-10.938L309.12,-10.938L308.807,-9.297C309.296,-9.928 309.825,-10.404 310.394,-10.723C310.964,-11.042 311.568,-11.201 312.206,-11.201C313.111,-11.201 313.814,-10.965 314.315,-10.493C314.817,-10.021 315.067,-9.362 315.067,-8.516C315.067,-8.307 315.049,-8.05 315.013,-7.744C314.978,-7.438 314.927,-7.116 314.862,-6.777ZM323.905,-14.043L323.309,-10.938L327.382,-10.938L327.108,-9.541L323.026,-9.541L321.864,-3.604C321.825,-3.408 321.796,-3.228 321.776,-3.062C321.757,-2.896 321.747,-2.741 321.747,-2.598C321.747,-2.168 321.874,-1.867 322.128,-1.694C322.382,-1.522 322.841,-1.436 323.505,-1.436L325.526,-1.436L325.243,0L323.065,0C321.978,0 321.179,-0.181 320.668,-0.542C320.157,-0.903 319.901,-1.468 319.901,-2.236C319.901,-2.399 319.914,-2.591 319.94,-2.813C319.966,-3.034 320.009,-3.298 320.067,-3.604L321.229,-9.541L318.309,-9.541L318.583,-10.938L321.503,-10.938L322.108,-14.043L323.905,-14.043ZM347.3,-15.195L349.097,-15.195L349.097,-12.92L347.3,-12.92L347.3,-15.195ZM347.3,0.195L347.3,-9.541L344.205,-9.541L344.205,-10.938L349.097,-10.938L349.097,0.195C349.097,1.465 348.806,2.443 348.223,3.13C347.641,3.817 346.812,4.16 345.738,4.16L343.257,4.16L343.257,2.637L345.543,2.637C346.129,2.637 346.568,2.433 346.861,2.026C347.154,1.619 347.3,1.009 347.3,0.195ZM359.498,-11.201C361.015,-11.201 362.175,-10.71 362.979,-9.727C363.783,-8.743 364.185,-7.321 364.185,-5.459C364.185,-3.59 363.785,-2.166 362.984,-1.187C362.183,-0.207 361.021,0.283 359.498,0.283C357.981,0.283 356.822,-0.207 356.021,-1.187C355.22,-2.166 354.82,-3.59 354.82,-5.459C354.82,-7.321 355.22,-8.743 356.021,-9.727C356.822,-10.71 357.981,-11.201 359.498,-11.201ZM359.498,-9.678C358.586,-9.678 357.896,-9.323 357.427,-8.613C356.959,-7.904 356.724,-6.852 356.724,-5.459C356.724,-4.072 356.959,-3.022 357.427,-2.31C357.896,-1.597 358.586,-1.24 359.498,-1.24C360.416,-1.24 361.109,-1.597 361.578,-2.31C362.046,-3.022 362.281,-4.072 362.281,-5.459C362.281,-6.852 362.046,-7.904 361.578,-8.613C361.109,-9.323 360.416,-9.678 359.498,-9.678ZM369.205,-9.541C369.491,-10.075 369.887,-10.485 370.391,-10.771C370.896,-11.058 371.48,-11.201 372.144,-11.201C373.459,-11.201 374.494,-10.695 375.25,-9.683C376.005,-8.67 376.382,-7.275 376.382,-5.498C376.382,-3.695 376.003,-2.28 375.245,-1.255C374.486,-0.229 373.446,0.283 372.125,0.283C371.474,0.283 370.899,0.142 370.401,-0.142C369.903,-0.425 369.504,-0.837 369.205,-1.377L369.205,0L367.408,0L367.408,-15.195L369.205,-15.195L369.205,-9.541ZM374.488,-5.459C374.488,-6.852 374.267,-7.904 373.824,-8.613C373.381,-9.323 372.727,-9.678 371.861,-9.678C370.989,-9.678 370.328,-9.321 369.879,-8.608C369.429,-7.896 369.205,-6.846 369.205,-5.459C369.205,-4.079 369.429,-3.031 369.879,-2.314C370.328,-1.598 370.989,-1.24 371.861,-1.24C372.727,-1.24 373.381,-1.595 373.824,-2.305C374.267,-3.014 374.488,-4.066 374.488,-5.459ZM395.621,-11.201C397.138,-11.201 398.298,-10.71 399.102,-9.727C399.906,-8.743 400.308,-7.321 400.308,-5.459C400.308,-3.59 399.908,-2.166 399.107,-1.187C398.306,-0.207 397.144,0.283 395.621,0.283C394.104,0.283 392.945,-0.207 392.144,-1.187C391.343,-2.166 390.943,-3.59 390.943,-5.459C390.943,-7.321 391.343,-8.743 392.144,-9.727C392.945,-10.71 394.104,-11.201 395.621,-11.201ZM395.621,-9.678C394.709,-9.678 394.019,-9.323 393.55,-8.613C393.082,-7.904 392.847,-6.852 392.847,-5.459C392.847,-4.072 393.082,-3.022 393.55,-2.31C394.019,-1.597 394.709,-1.24 395.621,-1.24C396.539,-1.24 397.232,-1.597 397.701,-2.31C398.17,-3.022 398.404,-4.072 398.404,-5.459C398.404,-6.852 398.17,-7.904 397.701,-8.613C397.232,-9.323 396.539,-9.678 395.621,-9.678ZM412.027,-15.195L412.027,-13.701L409.986,-13.701C409.341,-13.701 408.894,-13.569 408.643,-13.306C408.393,-13.042 408.267,-12.575 408.267,-11.904L408.267,-10.938L412.027,-10.938L412.027,-9.541L408.267,-9.541L408.267,0L406.47,0L406.47,-9.541L403.55,-9.541L403.55,-10.938L406.47,-10.938L406.47,-11.699C406.47,-12.897 406.745,-13.779 407.296,-14.346C407.846,-14.912 408.703,-15.195 409.869,-15.195L412.027,-15.195ZM437.007,-8.682C436.623,-8.981 436.233,-9.199 435.836,-9.336C435.438,-9.473 435.002,-9.541 434.527,-9.541C433.407,-9.541 432.551,-9.189 431.959,-8.486C431.366,-7.783 431.07,-6.768 431.07,-5.439L431.07,0L429.263,0L429.263,-10.938L431.07,-10.938L431.07,-8.799C431.369,-9.574 431.83,-10.168 432.452,-10.581C433.074,-10.994 433.811,-11.201 434.664,-11.201C435.106,-11.201 435.52,-11.146 435.904,-11.035C436.288,-10.924 436.656,-10.752 437.007,-10.518L437.007,-8.682ZM448.707,-6.367L448.707,-5.488L440.923,-5.488L440.923,-5.43C440.871,-3.939 441.156,-2.868 441.778,-2.217C442.4,-1.566 443.277,-1.24 444.41,-1.24C444.983,-1.24 445.582,-1.331 446.207,-1.514C446.832,-1.696 447.499,-1.973 448.209,-2.344L448.209,-0.557C447.525,-0.277 446.866,-0.067 446.231,0.073C445.596,0.213 444.983,0.283 444.39,0.283C442.691,0.283 441.363,-0.226 440.406,-1.245C439.449,-2.264 438.97,-3.669 438.97,-5.459C438.97,-7.204 439.439,-8.597 440.377,-9.639C441.314,-10.68 442.564,-11.201 444.127,-11.201C445.52,-11.201 446.618,-10.729 447.422,-9.785C448.226,-8.841 448.655,-7.702 448.707,-6.367ZM446.91,-6.895C446.832,-7.65 446.557,-8.302 446.085,-8.853C445.613,-9.403 444.934,-9.678 444.048,-9.678C443.183,-9.678 442.47,-9.391 441.91,-8.818C441.35,-8.245 441.044,-7.601 440.992,-6.885L446.91,-6.895ZM460.074,-6.777L460.074,0L458.267,0L458.267,-6.777C458.267,-7.76 458.095,-8.483 457.75,-8.945C457.405,-9.408 456.864,-9.639 456.129,-9.639C455.289,-9.639 454.643,-9.341 454.19,-8.745C453.738,-8.149 453.511,-7.295 453.511,-6.182L453.511,0L451.714,0L451.714,-10.938L453.511,-10.938L453.511,-9.297C453.83,-9.922 454.263,-10.396 454.81,-10.718C455.357,-11.04 456.005,-11.201 456.754,-11.201C457.867,-11.201 458.699,-10.835 459.249,-10.103C459.799,-9.37 460.074,-8.262 460.074,-6.777ZM470.23,-9.541L470.23,-15.195L472.027,-15.195L472.027,0L470.23,0L470.23,-1.377C469.931,-0.837 469.532,-0.425 469.034,-0.142C468.536,0.142 467.961,0.283 467.31,0.283C465.989,0.283 464.949,-0.229 464.19,-1.255C463.432,-2.28 463.052,-3.695 463.052,-5.498C463.052,-7.275 463.433,-8.67 464.195,-9.683C464.957,-10.695 465.995,-11.201 467.31,-11.201C467.968,-11.201 468.547,-11.06 469.048,-10.776C469.55,-10.493 469.944,-10.081 470.23,-9.541ZM464.947,-5.459C464.947,-4.066 465.168,-3.014 465.611,-2.305C466.054,-1.595 466.708,-1.24 467.574,-1.24C468.44,-1.24 469.099,-1.598 469.551,-2.314C470.004,-3.031 470.23,-4.079 470.23,-5.459C470.23,-6.846 470.004,-7.896 469.551,-8.608C469.099,-9.321 468.44,-9.678 467.574,-9.678C466.708,-9.678 466.054,-9.323 465.611,-8.613C465.168,-7.904 464.947,-6.852 464.947,-5.459ZM484.83,-6.367L484.83,-5.488L477.046,-5.488L477.046,-5.43C476.994,-3.939 477.279,-2.868 477.901,-2.217C478.523,-1.566 479.4,-1.24 480.533,-1.24C481.106,-1.24 481.705,-1.331 482.33,-1.514C482.955,-1.696 483.622,-1.973 484.332,-2.344L484.332,-0.557C483.648,-0.277 482.989,-0.067 482.354,0.073C481.719,0.213 481.106,0.283 480.513,0.283C478.814,0.283 477.486,-0.226 476.529,-1.245C475.572,-2.264 475.093,-3.669 475.093,-5.459C475.093,-7.204 475.562,-8.597 476.5,-9.639C477.437,-10.68 478.687,-11.201 480.25,-11.201C481.643,-11.201 482.741,-10.729 483.546,-9.785C484.35,-8.841 484.778,-7.702 484.83,-6.367ZM483.033,-6.895C482.955,-7.65 482.68,-8.302 482.208,-8.853C481.736,-9.403 481.057,-9.678 480.171,-9.678C479.306,-9.678 478.593,-9.391 478.033,-8.818C477.473,-8.245 477.167,-7.601 477.115,-6.885L483.033,-6.895ZM497.212,-8.682C496.828,-8.981 496.438,-9.199 496.041,-9.336C495.643,-9.473 495.207,-9.541 494.732,-9.541C493.612,-9.541 492.756,-9.189 492.164,-8.486C491.571,-7.783 491.275,-6.768 491.275,-5.439L491.275,0L489.468,0L489.468,-10.938L491.275,-10.938L491.275,-8.799C491.574,-9.574 492.035,-10.168 492.657,-10.581C493.279,-10.994 494.016,-11.201 494.869,-11.201C495.311,-11.201 495.725,-11.146 496.109,-11.035C496.493,-10.924 496.861,-10.752 497.212,-10.518L497.212,-8.682ZM503.863,-15.146L505.66,-15.146L505.66,-12.881L503.863,-12.881L503.863,-15.146ZM501.06,-10.898L505.66,-10.898L505.66,-1.396L509.224,-1.396L509.224,0L500.298,0L500.298,-1.396L503.863,-1.396L503.863,-9.502L501.06,-9.502L501.06,-10.898ZM520.279,-6.777L520.279,0L518.472,0L518.472,-6.777C518.472,-7.76 518.3,-8.483 517.955,-8.945C517.61,-9.408 517.069,-9.639 516.334,-9.639C515.494,-9.639 514.848,-9.341 514.395,-8.745C513.943,-8.149 513.716,-7.295 513.716,-6.182L513.716,0L511.92,0L511.92,-10.938L513.716,-10.938L513.716,-9.297C514.035,-9.922 514.468,-10.396 515.015,-10.718C515.562,-11.04 516.21,-11.201 516.959,-11.201C518.072,-11.201 518.904,-10.835 519.454,-10.103C520.004,-9.37 520.279,-8.262 520.279,-6.777ZM532.232,-0.703C532.232,0.938 531.845,2.181 531.07,3.027C530.295,3.874 529.156,4.297 527.652,4.297C527.157,4.297 526.64,4.251 526.099,4.16C525.559,4.069 525.018,3.936 524.478,3.76L524.478,1.982C525.116,2.282 525.696,2.503 526.216,2.646C526.737,2.79 527.216,2.861 527.652,2.861C528.622,2.861 529.328,2.598 529.771,2.07C530.214,1.543 530.435,0.706 530.435,-0.439L530.435,-1.738C530.149,-1.126 529.758,-0.671 529.263,-0.371C528.768,-0.072 528.166,0.078 527.457,0.078C526.181,0.078 525.162,-0.433 524.4,-1.455C523.638,-2.477 523.257,-3.844 523.257,-5.557C523.257,-7.275 523.638,-8.646 524.4,-9.668C525.162,-10.69 526.181,-11.201 527.457,-11.201C528.16,-11.201 528.755,-11.061 529.244,-10.781C529.732,-10.501 530.129,-10.068 530.435,-9.482L530.435,-10.898L532.232,-10.898L532.232,-0.703ZM530.435,-5.557C530.435,-6.904 530.215,-7.928 529.776,-8.628C529.337,-9.328 528.697,-9.678 527.857,-9.678C526.978,-9.678 526.308,-9.328 525.845,-8.628C525.383,-7.928 525.152,-6.904 525.152,-5.557C525.152,-4.209 525.385,-3.182 525.85,-2.476C526.316,-1.769 526.991,-1.416 527.877,-1.416C528.703,-1.416 529.337,-1.771 529.776,-2.48C530.215,-3.19 530.435,-4.215 530.435,-5.557ZM552.74,-9.824C552.961,-10.293 553.243,-10.64 553.585,-10.864C553.926,-11.089 554.338,-11.201 554.82,-11.201C555.699,-11.201 556.319,-10.861 556.68,-10.181C557.042,-9.5 557.222,-8.219 557.222,-6.338L557.222,0L555.582,0L555.582,-6.26C555.582,-7.803 555.495,-8.761 555.323,-9.136C555.15,-9.51 554.836,-9.697 554.38,-9.697C553.86,-9.697 553.503,-9.497 553.311,-9.097C553.119,-8.696 553.023,-7.751 553.023,-6.26L553.023,0L551.382,0L551.382,-6.26C551.382,-7.822 551.29,-8.786 551.104,-9.15C550.919,-9.515 550.585,-9.697 550.103,-9.697C549.628,-9.697 549.297,-9.497 549.112,-9.097C548.926,-8.696 548.834,-7.751 548.834,-6.26L548.834,0L547.203,0L547.203,-10.938L548.834,-10.938L548.834,-10C549.048,-10.391 549.317,-10.688 549.639,-10.894C549.962,-11.099 550.328,-11.201 550.738,-11.201C551.233,-11.201 551.644,-11.087 551.973,-10.859C552.302,-10.632 552.558,-10.286 552.74,-9.824ZM568.521,-6.24L568.521,0L566.714,0L566.714,-1.621C566.33,-0.97 565.847,-0.49 565.264,-0.181C564.682,0.129 563.974,0.283 563.14,0.283C562.027,0.283 561.138,-0.031 560.474,-0.659C559.81,-1.287 559.478,-2.129 559.478,-3.184C559.478,-4.401 559.887,-5.326 560.704,-5.957C561.521,-6.589 562.72,-6.904 564.302,-6.904L566.714,-6.904L566.714,-7.188C566.708,-8.06 566.487,-8.693 566.05,-9.087C565.614,-9.481 564.918,-9.678 563.961,-9.678C563.349,-9.678 562.73,-9.59 562.105,-9.414C561.48,-9.238 560.871,-8.981 560.279,-8.643L560.279,-10.439C560.943,-10.693 561.579,-10.884 562.188,-11.011C562.797,-11.138 563.388,-11.201 563.961,-11.201C564.865,-11.201 565.639,-11.068 566.28,-10.801C566.921,-10.534 567.44,-10.133 567.838,-9.6C568.085,-9.274 568.261,-8.872 568.365,-8.394C568.469,-7.915 568.521,-7.197 568.521,-6.24ZM566.714,-5.498L564.439,-5.498C563.391,-5.498 562.601,-5.314 562.071,-4.946C561.54,-4.578 561.275,-4.03 561.275,-3.301C561.275,-2.643 561.474,-2.132 561.871,-1.768C562.268,-1.403 562.818,-1.221 563.521,-1.221C564.511,-1.221 565.289,-1.564 565.855,-2.251C566.421,-2.938 566.708,-3.887 566.714,-5.098L566.714,-5.498ZM581.5,-8.682C581.115,-8.981 580.725,-9.199 580.328,-9.336C579.931,-9.473 579.494,-9.541 579.019,-9.541C577.899,-9.541 577.043,-9.189 576.451,-8.486C575.858,-7.783 575.562,-6.768 575.562,-5.439L575.562,0L573.755,0L573.755,-10.938L575.562,-10.938L575.562,-8.799C575.862,-9.574 576.322,-10.168 576.944,-10.581C577.566,-10.994 578.303,-11.201 579.156,-11.201C579.599,-11.201 580.012,-11.146 580.396,-11.035C580.78,-10.924 581.148,-10.752 581.5,-10.518L581.5,-8.682ZM584.566,-15.195L586.421,-15.195L586.421,-6.396L591.138,-10.938L593.326,-10.938L589.019,-6.816L594,0L591.802,0L587.759,-5.645L586.421,-4.385L586.421,0L584.566,0L584.566,-15.195ZM602.681,-9.541L602.681,-15.195L604.478,-15.195L604.478,0L602.681,0L602.681,-1.377C602.382,-0.837 601.983,-0.425 601.485,-0.142C600.987,0.142 600.412,0.283 599.761,0.283C598.44,0.283 597.4,-0.229 596.641,-1.255C595.883,-2.28 595.504,-3.695 595.504,-5.498C595.504,-7.275 595.884,-8.67 596.646,-9.683C597.408,-10.695 598.446,-11.201 599.761,-11.201C600.419,-11.201 600.998,-11.06 601.5,-10.776C602.001,-10.493 602.395,-10.081 602.681,-9.541ZM597.398,-5.459C597.398,-4.066 597.619,-3.014 598.062,-2.305C598.505,-1.595 599.159,-1.24 600.025,-1.24C600.891,-1.24 601.55,-1.598 602.003,-2.314C602.455,-3.031 602.681,-4.079 602.681,-5.459C602.681,-6.846 602.455,-7.896 602.003,-8.608C601.55,-9.321 600.891,-9.678 600.025,-9.678C599.159,-9.678 598.505,-9.323 598.062,-8.613C597.619,-7.904 597.398,-6.852 597.398,-5.459ZM612.359,-11.201C613.876,-11.201 615.036,-10.71 615.84,-9.727C616.644,-8.743 617.046,-7.321 617.046,-5.459C617.046,-3.59 616.646,-2.166 615.845,-1.187C615.045,-0.207 613.882,0.283 612.359,0.283C610.842,0.283 609.683,-0.207 608.882,-1.187C608.082,-2.166 607.681,-3.59 607.681,-5.459C607.681,-7.321 608.082,-8.743 608.882,-9.727C609.683,-10.71 610.842,-11.201 612.359,-11.201ZM612.359,-9.678C611.448,-9.678 610.757,-9.323 610.289,-8.613C609.82,-7.904 609.586,-6.852 609.586,-5.459C609.586,-4.072 609.82,-3.022 610.289,-2.31C610.757,-1.597 611.448,-1.24 612.359,-1.24C613.277,-1.24 613.97,-1.597 614.439,-2.31C614.908,-3.022 615.142,-4.072 615.142,-5.459C615.142,-6.852 614.908,-7.904 614.439,-8.613C613.97,-9.323 613.277,-9.678 612.359,-9.678ZM618.384,-10.938L620.162,-10.938L622.066,-2.1L623.629,-7.744L625.162,-7.744L626.744,-2.1L628.648,-10.938L630.425,-10.938L627.867,0L626.148,0L624.4,-5.996L622.662,0L620.943,0L618.384,-10.938ZM640.689,-6.777L640.689,0L638.882,0L638.882,-6.777C638.882,-7.76 638.71,-8.483 638.365,-8.945C638.02,-9.408 637.479,-9.639 636.744,-9.639C635.904,-9.639 635.258,-9.341 634.805,-8.745C634.353,-8.149 634.127,-7.295 634.127,-6.182L634.127,0L632.33,0L632.33,-10.938L634.127,-10.938L634.127,-9.297C634.446,-9.922 634.879,-10.396 635.425,-10.718C635.972,-11.04 636.62,-11.201 637.369,-11.201C638.482,-11.201 639.314,-10.835 639.864,-10.103C640.414,-9.37 640.689,-8.262 640.689,-6.777ZM646.265,-3.945L649.703,-3.945L649.703,0L646.265,0L646.265,-3.945Z" style="fill:rgb(166,166,166);"/>
    </g>
    <g transform="matrix(1,0,0,1,524.6,239.6)">
        <path d="M7.461,0L4.58,0L4.58,-12.061L0.879,-12.061L0.879,-14.58L11.162,-14.58L11.162,-12.061L7.461,-12.061L7.461,0ZM22.5,-7.1L22.5,0L19.658,0L19.658,-6.66C19.658,-7.448 19.546,-8.011 19.321,-8.35C19.097,-8.688 18.73,-8.857 18.223,-8.857C17.702,-8.857 17.295,-8.628 17.002,-8.169C16.709,-7.71 16.563,-7.074 16.563,-6.26L16.563,0L13.721,0L13.721,-15.195L16.563,-15.195L16.563,-9.297C16.764,-9.902 17.109,-10.371 17.598,-10.703C18.086,-11.035 18.675,-11.201 19.365,-11.201C20.4,-11.201 21.182,-10.858 21.709,-10.171C22.236,-9.484 22.5,-8.46 22.5,-7.1ZM26.24,-10.938L31.904,-10.938L31.904,-2.197L35.459,-2.197L35.459,0L25.479,0L25.479,-2.197L29.043,-2.197L29.043,-8.74L26.24,-8.74L26.24,-10.938ZM29.043,-16.26L31.904,-16.26L31.904,-12.92L29.043,-12.92L29.043,-16.26ZM45.801,-10.596L45.801,-8.096C45.273,-8.434 44.725,-8.69 44.155,-8.862C43.586,-9.035 43.014,-9.121 42.441,-9.121C41.803,-9.121 41.322,-9.028 40.996,-8.843C40.671,-8.657 40.508,-8.382 40.508,-8.018C40.508,-7.497 41.204,-7.074 42.598,-6.748L42.705,-6.719L43.525,-6.523C44.567,-6.276 45.33,-5.877 45.815,-5.327C46.3,-4.777 46.543,-4.033 46.543,-3.096C46.543,-1.969 46.174,-1.125 45.435,-0.562C44.696,0.002 43.584,0.283 42.1,0.283C41.442,0.283 40.768,0.226 40.078,0.112C39.388,-0.002 38.688,-0.173 37.979,-0.4L37.979,-2.9C38.61,-2.542 39.253,-2.269 39.907,-2.08C40.562,-1.891 41.195,-1.797 41.807,-1.797C42.477,-1.797 42.985,-1.895 43.33,-2.09C43.675,-2.285 43.848,-2.568 43.848,-2.939C43.848,-3.304 43.726,-3.584 43.481,-3.779C43.237,-3.975 42.656,-4.183 41.738,-4.404L40.947,-4.58C39.854,-4.827 39.056,-5.215 38.555,-5.742C38.053,-6.27 37.803,-6.976 37.803,-7.861C37.803,-8.916 38.184,-9.736 38.945,-10.322C39.707,-10.908 40.778,-11.201 42.158,-11.201C42.777,-11.201 43.394,-11.151 44.009,-11.05C44.624,-10.949 45.221,-10.798 45.801,-10.596ZM62.363,-10.938L68.027,-10.938L68.027,-2.197L71.582,-2.197L71.582,0L61.602,0L61.602,-2.197L65.166,-2.197L65.166,-8.74L62.363,-8.74L62.363,-10.938ZM65.166,-16.26L68.027,-16.26L68.027,-12.92L65.166,-12.92L65.166,-16.26ZM81.924,-10.596L81.924,-8.096C81.396,-8.434 80.848,-8.69 80.278,-8.862C79.709,-9.035 79.137,-9.121 78.564,-9.121C77.926,-9.121 77.445,-9.028 77.119,-8.843C76.794,-8.657 76.631,-8.382 76.631,-8.018C76.631,-7.497 77.327,-7.074 78.721,-6.748L78.828,-6.719L79.648,-6.523C80.69,-6.276 81.453,-5.877 81.938,-5.327C82.424,-4.777 82.666,-4.033 82.666,-3.096C82.666,-1.969 82.297,-1.125 81.558,-0.562C80.819,0.002 79.707,0.283 78.223,0.283C77.565,0.283 76.891,0.226 76.201,0.112C75.511,-0.002 74.811,-0.173 74.102,-0.4L74.102,-2.9C74.733,-2.542 75.376,-2.269 76.03,-2.08C76.685,-1.891 77.318,-1.797 77.93,-1.797C78.6,-1.797 79.108,-1.895 79.453,-2.09C79.798,-2.285 79.971,-2.568 79.971,-2.939C79.971,-3.304 79.849,-3.584 79.604,-3.779C79.36,-3.975 78.779,-4.183 77.861,-4.404L77.07,-4.58C75.977,-4.827 75.179,-5.215 74.678,-5.742C74.176,-6.27 73.926,-6.976 73.926,-7.861C73.926,-8.916 74.307,-9.736 75.068,-10.322C75.83,-10.908 76.901,-11.201 78.281,-11.201C78.9,-11.201 79.517,-11.151 80.132,-11.05C80.747,-10.949 81.344,-10.798 81.924,-10.596ZM107.148,-6.24L107.148,0L104.307,0L104.307,-1.221C103.962,-0.739 103.519,-0.368 102.979,-0.107C102.438,0.153 101.842,0.283 101.191,0.283C99.948,0.283 98.979,-0.046 98.286,-0.703C97.593,-1.361 97.246,-2.279 97.246,-3.457C97.246,-4.733 97.66,-5.675 98.486,-6.284C99.313,-6.893 100.592,-7.197 102.324,-7.197L104.307,-7.197L104.307,-7.676C104.307,-8.138 104.139,-8.488 103.804,-8.726C103.468,-8.963 102.975,-9.082 102.324,-9.082C101.641,-9.082 100.978,-8.996 100.337,-8.823C99.696,-8.651 99.027,-8.376 98.33,-7.998L98.33,-10.439C98.962,-10.7 99.603,-10.892 100.254,-11.016C100.905,-11.139 101.595,-11.201 102.324,-11.201C104.102,-11.201 105.35,-10.84 106.069,-10.117C106.789,-9.395 107.148,-8.102 107.148,-6.24ZM103.164,-5.137C102.096,-5.137 101.351,-5 100.928,-4.727C100.505,-4.453 100.293,-3.984 100.293,-3.32C100.293,-2.826 100.439,-2.432 100.732,-2.139C101.025,-1.846 101.423,-1.699 101.924,-1.699C102.679,-1.699 103.265,-1.984 103.682,-2.554C104.098,-3.123 104.307,-3.919 104.307,-4.941L104.307,-5.137L103.164,-5.137ZM118.828,-7.1L118.828,0L115.986,0L115.986,-6.66C115.986,-7.454 115.874,-8.022 115.649,-8.364C115.425,-8.706 115.059,-8.877 114.551,-8.877C114.036,-8.877 113.631,-8.646 113.335,-8.184C113.039,-7.721 112.891,-7.08 112.891,-6.26L112.891,0L110.049,0L110.049,-10.938L112.891,-10.938L112.891,-9.297C113.092,-9.902 113.438,-10.371 113.926,-10.703C114.414,-11.035 115.003,-11.201 115.693,-11.201C116.729,-11.201 117.51,-10.858 118.037,-10.171C118.564,-9.484 118.828,-8.46 118.828,-7.1ZM142.91,-7.1L142.91,0L140.068,0L140.068,-6.66C140.068,-7.448 139.956,-8.011 139.731,-8.35C139.507,-8.688 139.141,-8.857 138.633,-8.857C138.112,-8.857 137.705,-8.628 137.412,-8.169C137.119,-7.71 136.973,-7.074 136.973,-6.26L136.973,0L134.131,0L134.131,-15.195L136.973,-15.195L136.973,-9.297C137.174,-9.902 137.52,-10.371 138.008,-10.703C138.496,-11.035 139.085,-11.201 139.775,-11.201C140.811,-11.201 141.592,-10.858 142.119,-10.171C142.646,-9.484 142.91,-8.46 142.91,-7.1ZM148.73,-2.539L154.873,-2.539L154.873,0L145.615,0L145.615,-2.461L147.178,-4.121C149.033,-6.094 150.16,-7.308 150.557,-7.764C151.045,-8.324 151.396,-8.82 151.611,-9.253C151.826,-9.686 151.934,-10.114 151.934,-10.537C151.934,-11.188 151.737,-11.691 151.343,-12.046C150.949,-12.401 150.391,-12.578 149.668,-12.578C149.154,-12.578 148.576,-12.476 147.935,-12.271C147.293,-12.065 146.624,-11.768 145.928,-11.377L145.928,-14.063C146.624,-14.316 147.306,-14.51 147.974,-14.644C148.641,-14.777 149.281,-14.844 149.893,-14.844C151.436,-14.844 152.648,-14.484 153.53,-13.765C154.412,-13.045 154.854,-12.064 154.854,-10.82C154.854,-10.247 154.757,-9.71 154.565,-9.209C154.373,-8.708 154.043,-8.151 153.574,-7.539C153.229,-7.096 152.282,-6.1 150.732,-4.551C149.893,-3.711 149.225,-3.04 148.73,-2.539ZM0,1.27L156.533,1.27L156.533,2.148L0,2.148L0,1.27Z" style="fill:rgb(217,4,41);"/>
    </g>
    <g transform="matrix(1,0,0,1,0,288.4)">
        <path d="M14.678,-1.65L17.744,-1.65L17.744,-12.666L14.072,-10.898L14.072,-12.793L17.725,-14.531L19.697,-14.531L19.697,-1.65L22.725,-1.65L22.725,0L14.678,0L14.678,-1.65Z" style="fill:rgb(255,231,0);"/>
    </g>
    <g transform="matrix(1,0,0,1,36.6,288.4)">
        <path d="M0.459,-14.58L11.582,-14.58L11.582,-12.92L7.021,-12.92L7.021,0L5.039,0L5.039,-12.92L0.459,-12.92L0.459,-14.58ZM22.305,-6.777L22.305,0L20.498,0L20.498,-6.777C20.498,-7.76 20.326,-8.483 19.98,-8.945C19.635,-9.408 19.095,-9.639 18.359,-9.639C17.52,-9.639 16.873,-9.341 16.421,-8.745C15.968,-8.149 15.742,-7.295 15.742,-6.182L15.742,0L13.945,0L13.945,-15.195L15.742,-15.195L15.742,-9.297C16.061,-9.922 16.494,-10.396 17.041,-10.718C17.588,-11.04 18.236,-11.201 18.984,-11.201C20.098,-11.201 20.929,-10.835 21.479,-10.103C22.03,-9.37 22.305,-8.262 22.305,-6.777ZM29.971,-15.146L31.768,-15.146L31.768,-12.881L29.971,-12.881L29.971,-15.146ZM27.168,-10.898L31.768,-10.898L31.768,-1.396L35.332,-1.396L35.332,0L26.406,0L26.406,-1.396L29.971,-1.396L29.971,-9.502L27.168,-9.502L27.168,-10.898ZM45.625,-10.557L45.625,-8.799C45.111,-9.098 44.593,-9.323 44.072,-9.473C43.551,-9.622 43.021,-9.697 42.48,-9.697C41.667,-9.697 41.06,-9.565 40.659,-9.302C40.259,-9.038 40.059,-8.636 40.059,-8.096C40.059,-7.607 40.208,-7.243 40.508,-7.002C40.807,-6.761 41.553,-6.527 42.744,-6.299L43.467,-6.162C44.359,-5.993 45.034,-5.654 45.493,-5.146C45.952,-4.639 46.182,-3.978 46.182,-3.164C46.182,-2.083 45.798,-1.239 45.029,-0.63C44.261,-0.021 43.193,0.283 41.826,0.283C41.286,0.283 40.719,0.226 40.127,0.112C39.535,-0.002 38.893,-0.173 38.203,-0.4L38.203,-2.256C38.874,-1.911 39.515,-1.652 40.127,-1.479C40.739,-1.307 41.318,-1.221 41.865,-1.221C42.66,-1.221 43.275,-1.382 43.711,-1.704C44.147,-2.026 44.365,-2.477 44.365,-3.057C44.365,-3.89 43.568,-4.466 41.973,-4.785L41.895,-4.805L41.221,-4.941C40.186,-5.143 39.43,-5.483 38.955,-5.962C38.48,-6.44 38.242,-7.093 38.242,-7.92C38.242,-8.968 38.597,-9.777 39.307,-10.347C40.016,-10.916 41.029,-11.201 42.344,-11.201C42.93,-11.201 43.493,-11.147 44.033,-11.04C44.574,-10.933 45.104,-10.771 45.625,-10.557ZM66.094,-15.146L67.891,-15.146L67.891,-12.881L66.094,-12.881L66.094,-15.146ZM63.291,-10.898L67.891,-10.898L67.891,-1.396L71.455,-1.396L71.455,0L62.529,0L62.529,-1.396L66.094,-1.396L66.094,-9.502L63.291,-9.502L63.291,-10.898ZM81.748,-10.557L81.748,-8.799C81.234,-9.098 80.716,-9.323 80.195,-9.473C79.674,-9.622 79.144,-9.697 78.604,-9.697C77.79,-9.697 77.183,-9.565 76.782,-9.302C76.382,-9.038 76.182,-8.636 76.182,-8.096C76.182,-7.607 76.331,-7.243 76.631,-7.002C76.93,-6.761 77.676,-6.527 78.867,-6.299L79.59,-6.162C80.482,-5.993 81.157,-5.654 81.616,-5.146C82.075,-4.639 82.305,-3.978 82.305,-3.164C82.305,-2.083 81.921,-1.239 81.152,-0.63C80.384,-0.021 79.316,0.283 77.949,0.283C77.409,0.283 76.842,0.226 76.25,0.112C75.658,-0.002 75.016,-0.173 74.326,-0.4L74.326,-2.256C74.997,-1.911 75.638,-1.652 76.25,-1.479C76.862,-1.307 77.441,-1.221 77.988,-1.221C78.783,-1.221 79.398,-1.382 79.834,-1.704C80.27,-2.026 80.488,-2.477 80.488,-3.057C80.488,-3.89 79.691,-4.466 78.096,-4.785L78.018,-4.805L77.344,-4.941C76.309,-5.143 75.553,-5.483 75.078,-5.962C74.603,-6.44 74.365,-7.093 74.365,-7.92C74.365,-8.968 74.72,-9.777 75.43,-10.347C76.139,-10.916 77.152,-11.201 78.467,-11.201C79.053,-11.201 79.616,-11.147 80.156,-11.04C80.697,-10.933 81.227,-10.771 81.748,-10.557ZM106.67,-6.24L106.67,0L104.863,0L104.863,-1.621C104.479,-0.97 103.996,-0.49 103.413,-0.181C102.83,0.129 102.122,0.283 101.289,0.283C100.176,0.283 99.287,-0.031 98.623,-0.659C97.959,-1.287 97.627,-2.129 97.627,-3.184C97.627,-4.401 98.035,-5.326 98.853,-5.957C99.67,-6.589 100.869,-6.904 102.451,-6.904L104.863,-6.904L104.863,-7.188C104.857,-8.06 104.635,-8.693 104.199,-9.087C103.763,-9.481 103.066,-9.678 102.109,-9.678C101.497,-9.678 100.879,-9.59 100.254,-9.414C99.629,-9.238 99.02,-8.981 98.428,-8.643L98.428,-10.439C99.092,-10.693 99.728,-10.884 100.337,-11.011C100.946,-11.138 101.536,-11.201 102.109,-11.201C103.014,-11.201 103.787,-11.068 104.429,-10.801C105.07,-10.534 105.589,-10.133 105.986,-9.6C106.234,-9.274 106.41,-8.872 106.514,-8.394C106.618,-7.915 106.67,-7.197 106.67,-6.24ZM104.863,-5.498L102.588,-5.498C101.54,-5.498 100.75,-5.314 100.22,-4.946C99.689,-4.578 99.424,-4.03 99.424,-3.301C99.424,-2.643 99.622,-2.132 100.02,-1.768C100.417,-1.403 100.967,-1.221 101.67,-1.221C102.66,-1.221 103.438,-1.564 104.004,-2.251C104.57,-2.938 104.857,-3.887 104.863,-5.098L104.863,-5.498ZM127.432,-3.955C127.432,-3.148 127.58,-2.539 127.876,-2.129C128.172,-1.719 128.61,-1.514 129.189,-1.514L131.289,-1.514L131.289,0L129.014,0C127.939,0 127.108,-0.343 126.519,-1.03C125.929,-1.717 125.635,-2.692 125.635,-3.955L125.635,-13.848L122.754,-13.848L122.754,-15.254L127.432,-15.254L127.432,-3.955ZM138.34,-15.146L140.137,-15.146L140.137,-12.881L138.34,-12.881L138.34,-15.146ZM135.537,-10.898L140.137,-10.898L140.137,-1.396L143.701,-1.396L143.701,0L134.775,0L134.775,-1.396L138.34,-1.396L138.34,-9.502L135.537,-9.502L135.537,-10.898ZM153.994,-10.557L153.994,-8.799C153.48,-9.098 152.962,-9.323 152.441,-9.473C151.921,-9.622 151.39,-9.697 150.85,-9.697C150.036,-9.697 149.429,-9.565 149.028,-9.302C148.628,-9.038 148.428,-8.636 148.428,-8.096C148.428,-7.607 148.577,-7.243 148.877,-7.002C149.176,-6.761 149.922,-6.527 151.113,-6.299L151.836,-6.162C152.728,-5.993 153.403,-5.654 153.862,-5.146C154.321,-4.639 154.551,-3.978 154.551,-3.164C154.551,-2.083 154.167,-1.239 153.398,-0.63C152.63,-0.021 151.563,0.283 150.195,0.283C149.655,0.283 149.089,0.226 148.496,0.112C147.904,-0.002 147.262,-0.173 146.572,-0.4L146.572,-2.256C147.243,-1.911 147.884,-1.652 148.496,-1.479C149.108,-1.307 149.688,-1.221 150.234,-1.221C151.029,-1.221 151.644,-1.382 152.08,-1.704C152.516,-2.026 152.734,-2.477 152.734,-3.057C152.734,-3.89 151.937,-4.466 150.342,-4.785L150.264,-4.805L149.59,-4.941C148.555,-5.143 147.799,-5.483 147.324,-5.962C146.849,-6.44 146.611,-7.093 146.611,-7.92C146.611,-8.968 146.966,-9.777 147.676,-10.347C148.385,-10.916 149.398,-11.201 150.713,-11.201C151.299,-11.201 151.862,-11.147 152.402,-11.04C152.943,-10.933 153.473,-10.771 153.994,-10.557ZM162.529,-14.043L162.529,-10.938L166.611,-10.938L166.611,-9.541L162.529,-9.541L162.529,-3.604C162.529,-2.796 162.682,-2.233 162.988,-1.914C163.294,-1.595 163.828,-1.436 164.59,-1.436L166.611,-1.436L166.611,0L164.414,0C163.066,0 162.116,-0.27 161.563,-0.811C161.009,-1.351 160.732,-2.282 160.732,-3.604L160.732,-9.541L157.813,-9.541L157.813,-10.938L160.732,-10.938L160.732,-14.043L162.529,-14.043ZM186.504,-15.146L188.301,-15.146L188.301,-12.881L186.504,-12.881L186.504,-15.146ZM183.701,-10.898L188.301,-10.898L188.301,-1.396L191.865,-1.396L191.865,0L182.939,0L182.939,-1.396L186.504,-1.396L186.504,-9.502L183.701,-9.502L183.701,-10.898ZM198.652,-14.043L198.652,-10.938L202.734,-10.938L202.734,-9.541L198.652,-9.541L198.652,-3.604C198.652,-2.796 198.805,-2.233 199.111,-1.914C199.417,-1.595 199.951,-1.436 200.713,-1.436L202.734,-1.436L202.734,0L200.537,0C199.189,0 198.239,-0.27 197.686,-0.811C197.132,-1.351 196.855,-2.282 196.855,-3.604L196.855,-9.541L193.936,-9.541L193.936,-10.938L196.855,-10.938L196.855,-14.043L198.652,-14.043ZM215.635,-6.367L215.635,-5.488L207.852,-5.488L207.852,-5.43C207.799,-3.939 208.084,-2.868 208.706,-2.217C209.328,-1.566 210.205,-1.24 211.338,-1.24C211.911,-1.24 212.51,-1.331 213.135,-1.514C213.76,-1.696 214.427,-1.973 215.137,-2.344L215.137,-0.557C214.453,-0.277 213.794,-0.067 213.159,0.073C212.524,0.213 211.911,0.283 211.318,0.283C209.619,0.283 208.291,-0.226 207.334,-1.245C206.377,-2.264 205.898,-3.669 205.898,-5.459C205.898,-7.204 206.367,-8.597 207.305,-9.639C208.242,-10.68 209.492,-11.201 211.055,-11.201C212.448,-11.201 213.547,-10.729 214.351,-9.785C215.155,-8.841 215.583,-7.702 215.635,-6.367ZM213.838,-6.895C213.76,-7.65 213.485,-8.302 213.013,-8.853C212.541,-9.403 211.862,-9.678 210.977,-9.678C210.111,-9.678 209.398,-9.391 208.838,-8.818C208.278,-8.245 207.972,-7.601 207.92,-6.885L213.838,-6.895ZM223.34,-9.824C223.561,-10.293 223.843,-10.64 224.185,-10.864C224.526,-11.089 224.938,-11.201 225.42,-11.201C226.299,-11.201 226.919,-10.861 227.28,-10.181C227.642,-9.5 227.822,-8.219 227.822,-6.338L227.822,0L226.182,0L226.182,-6.26C226.182,-7.803 226.095,-8.761 225.923,-9.136C225.75,-9.51 225.436,-9.697 224.98,-9.697C224.46,-9.697 224.103,-9.497 223.911,-9.097C223.719,-8.696 223.623,-7.751 223.623,-6.26L223.623,0L221.982,0L221.982,-6.26C221.982,-7.822 221.89,-8.786 221.704,-9.15C221.519,-9.515 221.185,-9.697 220.703,-9.697C220.228,-9.697 219.897,-9.497 219.712,-9.097C219.526,-8.696 219.434,-7.751 219.434,-6.26L219.434,0L217.803,0L217.803,-10.938L219.434,-10.938L219.434,-10C219.648,-10.391 219.917,-10.688 220.239,-10.894C220.562,-11.099 220.928,-11.201 221.338,-11.201C221.833,-11.201 222.244,-11.087 222.573,-10.859C222.902,-10.632 223.158,-10.286 223.34,-9.824Z" style="fill:rgb(166,166,166);"/>
    </g>
    <g transform="matrix(1,0,0,1,0,312.8)">
        <path d="M15.684,-1.66L22.383,-1.66L22.383,0L13.525,0L13.525,-1.66C14.743,-2.943 15.807,-4.076 16.719,-5.059C17.63,-6.042 18.258,-6.735 18.604,-7.139C19.255,-7.933 19.694,-8.576 19.922,-9.067C20.15,-9.559 20.264,-10.062 20.264,-10.576C20.264,-11.39 20.024,-12.028 19.546,-12.49C19.067,-12.952 18.411,-13.184 17.578,-13.184C16.986,-13.184 16.364,-13.076 15.713,-12.861C15.062,-12.646 14.372,-12.321 13.643,-11.885L13.643,-13.877C14.313,-14.196 14.972,-14.437 15.62,-14.6C16.268,-14.762 16.908,-14.844 17.539,-14.844C18.965,-14.844 20.112,-14.465 20.981,-13.706C21.851,-12.948 22.285,-11.953 22.285,-10.723C22.285,-10.098 22.14,-9.473 21.851,-8.848C21.561,-8.223 21.09,-7.533 20.439,-6.777C20.075,-6.354 19.546,-5.768 18.853,-5.02C18.159,-4.271 17.103,-3.151 15.684,-1.66Z" style="fill:rgb(255,231,0);"/>
    </g>
    <g transform="matrix(1,0,0,1,36.6,312.8)">
        <path d="M0.459,-14.58L11.582,-14.58L11.582,-12.92L7.021,-12.92L7.021,0L5.039,0L5.039,-12.92L0.459,-12.92L0.459,-14.58ZM22.305,-6.777L22.305,0L20.498,0L20.498,-6.777C20.498,-7.76 20.326,-8.483 19.98,-8.945C19.635,-9.408 19.095,-9.639 18.359,-9.639C17.52,-9.639 16.873,-9.341 16.421,-8.745C15.968,-8.149 15.742,-7.295 15.742,-6.182L15.742,0L13.945,0L13.945,-15.195L15.742,-15.195L15.742,-9.297C16.061,-9.922 16.494,-10.396 17.041,-10.718C17.588,-11.04 18.236,-11.201 18.984,-11.201C20.098,-11.201 20.929,-10.835 21.479,-10.103C22.03,-9.37 22.305,-8.262 22.305,-6.777ZM27.168,-10.898L31.768,-10.898L31.768,-1.396L35.332,-1.396L35.332,0L26.406,0L26.406,-1.396L29.971,-1.396L29.971,-9.502L27.168,-9.502L27.168,-10.898ZM29.971,-15.146L31.768,-15.146L31.768,-12.881L29.971,-12.881L29.971,-15.146ZM45.625,-10.557L45.625,-8.799C45.111,-9.098 44.593,-9.323 44.072,-9.473C43.551,-9.622 43.021,-9.697 42.48,-9.697C41.667,-9.697 41.06,-9.565 40.659,-9.302C40.259,-9.038 40.059,-8.636 40.059,-8.096C40.059,-7.607 40.208,-7.243 40.508,-7.002C40.807,-6.761 41.553,-6.527 42.744,-6.299L43.467,-6.162C44.359,-5.993 45.034,-5.654 45.493,-5.146C45.952,-4.639 46.182,-3.978 46.182,-3.164C46.182,-2.083 45.798,-1.239 45.029,-0.63C44.261,-0.021 43.193,0.283 41.826,0.283C41.286,0.283 40.719,0.226 40.127,0.112C39.535,-0.002 38.893,-0.173 38.203,-0.4L38.203,-2.256C38.874,-1.911 39.515,-1.652 40.127,-1.479C40.739,-1.307 41.318,-1.221 41.865,-1.221C42.66,-1.221 43.275,-1.382 43.711,-1.704C44.147,-2.026 44.365,-2.477 44.365,-3.057C44.365,-3.89 43.568,-4.466 41.973,-4.785L41.895,-4.805L41.221,-4.941C40.186,-5.143 39.43,-5.483 38.955,-5.962C38.48,-6.44 38.242,-7.093 38.242,-7.92C38.242,-8.968 38.597,-9.777 39.307,-10.347C40.016,-10.916 41.029,-11.201 42.344,-11.201C42.93,-11.201 43.493,-11.147 44.033,-11.04C44.574,-10.933 45.104,-10.771 45.625,-10.557ZM63.291,-10.898L67.891,-10.898L67.891,-1.396L71.455,-1.396L71.455,0L62.529,0L62.529,-1.396L66.094,-1.396L66.094,-9.502L63.291,-9.502L63.291,-10.898ZM66.094,-15.146L67.891,-15.146L67.891,-12.881L66.094,-12.881L66.094,-15.146ZM81.748,-10.557L81.748,-8.799C81.234,-9.098 80.716,-9.323 80.195,-9.473C79.674,-9.622 79.144,-9.697 78.604,-9.697C77.79,-9.697 77.183,-9.565 76.782,-9.302C76.382,-9.038 76.182,-8.636 76.182,-8.096C76.182,-7.607 76.331,-7.243 76.631,-7.002C76.93,-6.761 77.676,-6.527 78.867,-6.299L79.59,-6.162C80.482,-5.993 81.157,-5.654 81.616,-5.146C82.075,-4.639 82.305,-3.978 82.305,-3.164C82.305,-2.083 81.921,-1.239 81.152,-0.63C80.384,-0.021 79.316,0.283 77.949,0.283C77.409,0.283 76.842,0.226 76.25,0.112C75.658,-0.002 75.016,-0.173 74.326,-0.4L74.326,-2.256C74.997,-1.911 75.638,-1.652 76.25,-1.479C76.862,-1.307 77.441,-1.221 77.988,-1.221C78.783,-1.221 79.398,-1.382 79.834,-1.704C80.27,-2.026 80.488,-2.477 80.488,-3.057C80.488,-3.89 79.691,-4.466 78.096,-4.785L78.018,-4.805L77.344,-4.941C76.309,-5.143 75.553,-5.483 75.078,-5.962C74.603,-6.44 74.365,-7.093 74.365,-7.92C74.365,-8.968 74.72,-9.777 75.43,-10.347C76.139,-10.916 77.152,-11.201 78.467,-11.201C79.053,-11.201 79.616,-11.147 80.156,-11.04C80.697,-10.933 81.227,-10.771 81.748,-10.557ZM106.67,-6.24L106.67,0L104.863,0L104.863,-1.621C104.479,-0.97 103.996,-0.49 103.413,-0.181C102.83,0.129 102.122,0.283 101.289,0.283C100.176,0.283 99.287,-0.031 98.623,-0.659C97.959,-1.287 97.627,-2.129 97.627,-3.184C97.627,-4.401 98.035,-5.326 98.853,-5.957C99.67,-6.589 100.869,-6.904 102.451,-6.904L104.863,-6.904L104.863,-7.188C104.857,-8.06 104.635,-8.693 104.199,-9.087C103.763,-9.481 103.066,-9.678 102.109,-9.678C101.497,-9.678 100.879,-9.59 100.254,-9.414C99.629,-9.238 99.02,-8.981 98.428,-8.643L98.428,-10.439C99.092,-10.693 99.728,-10.884 100.337,-11.011C100.946,-11.138 101.536,-11.201 102.109,-11.201C103.014,-11.201 103.787,-11.068 104.429,-10.801C105.07,-10.534 105.589,-10.133 105.986,-9.6C106.234,-9.274 106.41,-8.872 106.514,-8.394C106.618,-7.915 106.67,-7.197 106.67,-6.24ZM104.863,-5.498L102.588,-5.498C101.54,-5.498 100.75,-5.314 100.22,-4.946C99.689,-4.578 99.424,-4.03 99.424,-3.301C99.424,-2.643 99.622,-2.132 100.02,-1.768C100.417,-1.403 100.967,-1.221 101.67,-1.221C102.66,-1.221 103.438,-1.564 104.004,-2.251C104.57,-2.938 104.857,-3.887 104.863,-5.098L104.863,-5.498ZM118.633,-6.777L118.633,0L116.826,0L116.826,-6.777C116.826,-7.76 116.654,-8.483 116.309,-8.945C115.964,-9.408 115.423,-9.639 114.688,-9.639C113.848,-9.639 113.201,-9.341 112.749,-8.745C112.297,-8.149 112.07,-7.295 112.07,-6.182L112.07,0L110.273,0L110.273,-10.938L112.07,-10.938L112.07,-9.297C112.389,-9.922 112.822,-10.396 113.369,-10.718C113.916,-11.04 114.564,-11.201 115.313,-11.201C116.426,-11.201 117.257,-10.835 117.808,-10.103C118.358,-9.37 118.633,-8.262 118.633,-6.777ZM126.426,-11.201C127.943,-11.201 129.103,-10.71 129.907,-9.727C130.711,-8.743 131.113,-7.321 131.113,-5.459C131.113,-3.59 130.713,-2.166 129.912,-1.187C129.111,-0.207 127.949,0.283 126.426,0.283C124.909,0.283 123.75,-0.207 122.949,-1.187C122.148,-2.166 121.748,-3.59 121.748,-5.459C121.748,-7.321 122.148,-8.743 122.949,-9.727C123.75,-10.71 124.909,-11.201 126.426,-11.201ZM126.426,-9.678C125.514,-9.678 124.824,-9.323 124.355,-8.613C123.887,-7.904 123.652,-6.852 123.652,-5.459C123.652,-4.072 123.887,-3.022 124.355,-2.31C124.824,-1.597 125.514,-1.24 126.426,-1.24C127.344,-1.24 128.037,-1.597 128.506,-2.31C128.975,-3.022 129.209,-4.072 129.209,-5.459C129.209,-6.852 128.975,-7.904 128.506,-8.613C128.037,-9.323 127.344,-9.678 126.426,-9.678ZM138.447,-14.043L138.447,-10.938L142.529,-10.938L142.529,-9.541L138.447,-9.541L138.447,-3.604C138.447,-2.796 138.6,-2.233 138.906,-1.914C139.212,-1.595 139.746,-1.436 140.508,-1.436L142.529,-1.436L142.529,0L140.332,0C138.984,0 138.034,-0.27 137.48,-0.811C136.927,-1.351 136.65,-2.282 136.65,-3.604L136.65,-9.541L133.73,-9.541L133.73,-10.938L136.65,-10.938L136.65,-14.043L138.447,-14.043ZM154.756,-6.777L154.756,0L152.949,0L152.949,-6.777C152.949,-7.76 152.777,-8.483 152.432,-8.945C152.087,-9.408 151.546,-9.639 150.811,-9.639C149.971,-9.639 149.325,-9.341 148.872,-8.745C148.42,-8.149 148.193,-7.295 148.193,-6.182L148.193,0L146.396,0L146.396,-15.195L148.193,-15.195L148.193,-9.297C148.512,-9.922 148.945,-10.396 149.492,-10.718C150.039,-11.04 150.687,-11.201 151.436,-11.201C152.549,-11.201 153.381,-10.835 153.931,-10.103C154.481,-9.37 154.756,-8.262 154.756,-6.777ZM167.471,-6.367L167.471,-5.488L159.688,-5.488L159.688,-5.43C159.635,-3.939 159.92,-2.868 160.542,-2.217C161.164,-1.566 162.041,-1.24 163.174,-1.24C163.747,-1.24 164.346,-1.331 164.971,-1.514C165.596,-1.696 166.263,-1.973 166.973,-2.344L166.973,-0.557C166.289,-0.277 165.63,-0.067 164.995,0.073C164.36,0.213 163.747,0.283 163.154,0.283C161.455,0.283 160.127,-0.226 159.17,-1.245C158.213,-2.264 157.734,-3.669 157.734,-5.459C157.734,-7.204 158.203,-8.597 159.141,-9.639C160.078,-10.68 161.328,-11.201 162.891,-11.201C164.284,-11.201 165.382,-10.729 166.187,-9.785C166.991,-8.841 167.419,-7.702 167.471,-6.367ZM165.674,-6.895C165.596,-7.65 165.321,-8.302 164.849,-8.853C164.377,-9.403 163.698,-9.678 162.813,-9.678C161.947,-9.678 161.234,-9.391 160.674,-8.818C160.114,-8.245 159.808,-7.601 159.756,-6.885L165.674,-6.895ZM179.854,-8.682C179.469,-8.981 179.079,-9.199 178.682,-9.336C178.285,-9.473 177.848,-9.541 177.373,-9.541C176.253,-9.541 175.397,-9.189 174.805,-8.486C174.212,-7.783 173.916,-6.768 173.916,-5.439L173.916,0L172.109,0L172.109,-10.938L173.916,-10.938L173.916,-8.799C174.215,-9.574 174.676,-10.168 175.298,-10.581C175.92,-10.994 176.657,-11.201 177.51,-11.201C177.952,-11.201 178.366,-11.146 178.75,-11.035C179.134,-10.924 179.502,-10.752 179.854,-10.518L179.854,-8.682ZM199.678,-3.955C199.678,-3.148 199.826,-2.539 200.122,-2.129C200.418,-1.719 200.856,-1.514 201.436,-1.514L203.535,-1.514L203.535,0L201.26,0C200.186,0 199.354,-0.343 198.765,-1.03C198.175,-1.717 197.881,-2.692 197.881,-3.955L197.881,-13.848L195,-13.848L195,-15.254L199.678,-15.254L199.678,-3.955ZM207.783,-10.898L212.383,-10.898L212.383,-1.396L215.947,-1.396L215.947,0L207.021,0L207.021,-1.396L210.586,-1.396L210.586,-9.502L207.783,-9.502L207.783,-10.898ZM210.586,-15.146L212.383,-15.146L212.383,-12.881L210.586,-12.881L210.586,-15.146ZM226.24,-10.557L226.24,-8.799C225.726,-9.098 225.208,-9.323 224.688,-9.473C224.167,-9.622 223.636,-9.697 223.096,-9.697C222.282,-9.697 221.675,-9.565 221.274,-9.302C220.874,-9.038 220.674,-8.636 220.674,-8.096C220.674,-7.607 220.824,-7.243 221.123,-7.002C221.423,-6.761 222.168,-6.527 223.359,-6.299L224.082,-6.162C224.974,-5.993 225.649,-5.654 226.108,-5.146C226.567,-4.639 226.797,-3.978 226.797,-3.164C226.797,-2.083 226.413,-1.239 225.645,-0.63C224.876,-0.021 223.809,0.283 222.441,0.283C221.901,0.283 221.335,0.226 220.742,0.112C220.15,-0.002 219.508,-0.173 218.818,-0.4L218.818,-2.256C219.489,-1.911 220.13,-1.652 220.742,-1.479C221.354,-1.307 221.934,-1.221 222.48,-1.221C223.275,-1.221 223.89,-1.382 224.326,-1.704C224.762,-2.026 224.98,-2.477 224.98,-3.057C224.98,-3.89 224.183,-4.466 222.588,-4.785L222.51,-4.805L221.836,-4.941C220.801,-5.143 220.046,-5.483 219.57,-5.962C219.095,-6.44 218.857,-7.093 218.857,-7.92C218.857,-8.968 219.212,-9.777 219.922,-10.347C220.632,-10.916 221.644,-11.201 222.959,-11.201C223.545,-11.201 224.108,-11.147 224.648,-11.04C225.189,-10.933 225.719,-10.771 226.24,-10.557ZM234.775,-14.043L234.775,-10.938L238.857,-10.938L238.857,-9.541L234.775,-9.541L234.775,-3.604C234.775,-2.796 234.928,-2.233 235.234,-1.914C235.54,-1.595 236.074,-1.436 236.836,-1.436L238.857,-1.436L238.857,0L236.66,0C235.313,0 234.362,-0.27 233.809,-0.811C233.255,-1.351 232.979,-2.282 232.979,-3.604L232.979,-9.541L230.059,-9.541L230.059,-10.938L232.979,-10.938L232.979,-14.043L234.775,-14.043ZM255.947,-10.898L260.547,-10.898L260.547,-1.396L264.111,-1.396L264.111,0L255.186,0L255.186,-1.396L258.75,-1.396L258.75,-9.502L255.947,-9.502L255.947,-10.898ZM258.75,-15.146L260.547,-15.146L260.547,-12.881L258.75,-12.881L258.75,-15.146ZM270.898,-14.043L270.898,-10.938L274.98,-10.938L274.98,-9.541L270.898,-9.541L270.898,-3.604C270.898,-2.796 271.051,-2.233 271.357,-1.914C271.663,-1.595 272.197,-1.436 272.959,-1.436L274.98,-1.436L274.98,0L272.783,0C271.436,0 270.485,-0.27 269.932,-0.811C269.378,-1.351 269.102,-2.282 269.102,-3.604L269.102,-9.541L266.182,-9.541L266.182,-10.938L269.102,-10.938L269.102,-14.043L270.898,-14.043ZM287.881,-6.367L287.881,-5.488L280.098,-5.488L280.098,-5.43C280.046,-3.939 280.33,-2.868 280.952,-2.217C281.574,-1.566 282.451,-1.24 283.584,-1.24C284.157,-1.24 284.756,-1.331 285.381,-1.514C286.006,-1.696 286.673,-1.973 287.383,-2.344L287.383,-0.557C286.699,-0.277 286.04,-0.067 285.405,0.073C284.771,0.213 284.157,0.283 283.564,0.283C281.865,0.283 280.537,-0.226 279.58,-1.245C278.623,-2.264 278.145,-3.669 278.145,-5.459C278.145,-7.204 278.613,-8.597 279.551,-9.639C280.488,-10.68 281.738,-11.201 283.301,-11.201C284.694,-11.201 285.793,-10.729 286.597,-9.785C287.401,-8.841 287.829,-7.702 287.881,-6.367ZM286.084,-6.895C286.006,-7.65 285.731,-8.302 285.259,-8.853C284.787,-9.403 284.108,-9.678 283.223,-9.678C282.357,-9.678 281.644,-9.391 281.084,-8.818C280.524,-8.245 280.218,-7.601 280.166,-6.885L286.084,-6.895ZM295.586,-9.824C295.807,-10.293 296.089,-10.64 296.431,-10.864C296.772,-11.089 297.184,-11.201 297.666,-11.201C298.545,-11.201 299.165,-10.861 299.526,-10.181C299.888,-9.5 300.068,-8.219 300.068,-6.338L300.068,0L298.428,0L298.428,-6.26C298.428,-7.803 298.341,-8.761 298.169,-9.136C297.996,-9.51 297.682,-9.697 297.227,-9.697C296.706,-9.697 296.349,-9.497 296.157,-9.097C295.965,-8.696 295.869,-7.751 295.869,-6.26L295.869,0L294.229,0L294.229,-6.26C294.229,-7.822 294.136,-8.786 293.95,-9.15C293.765,-9.515 293.431,-9.697 292.949,-9.697C292.474,-9.697 292.144,-9.497 291.958,-9.097C291.772,-8.696 291.68,-7.751 291.68,-6.26L291.68,0L290.049,0L290.049,-10.938L291.68,-10.938L291.68,-10C291.895,-10.391 292.163,-10.688 292.485,-10.894C292.808,-11.099 293.174,-11.201 293.584,-11.201C294.079,-11.201 294.491,-11.087 294.819,-10.859C295.148,-10.632 295.404,-10.286 295.586,-9.824Z" style="fill:rgb(166,166,166);"/>
    </g>
</svg>
