<?xml version="1.0" encoding="UTF-8" standalone="no"?>
<!DOCTYPE svg PUBLIC "-//W3C//DTD SVG 1.1//EN" "http://www.w3.org/Graphics/SVG/1.1/DTD/svg11.dtd">
<svg width="100%" height="100%" viewBox="0 0 1238 122" version="1.1" xmlns="http://www.w3.org/2000/svg" xmlns:xlink="http://www.w3.org/1999/xlink" xml:space="preserve" xmlns:serif="http://www.serif.com/" style="fill-rule:evenodd;clip-rule:evenodd;stroke-linejoin:round;stroke-miterlimit:2;">
    <g transform="matrix(1,0,0,1,9,16)">
        <g transform="matrix(1,0,0,1,0,4)">
            <path d="M5.234,67.516L5.234,-4.844L0,-4.844L0,-6.523L6.797,-6.523L6.797,17.877L17.275,17.877L17.275,-5.684L18.838,-5.684L18.838,67.516L17.275,67.516L17.275,19.556L6.797,19.556L6.797,67.516L5.234,67.516ZM53.398,64.235L53.398,-4.844L47.969,-4.844L47.969,-6.523L54.961,-6.523L54.961,64.235C54.961,65.042 55.109,65.651 55.405,66.061C55.701,66.471 56.139,66.677 56.719,66.677L60.4,66.677L60.4,68.356L56.719,68.356C55.625,68.356 54.782,67.92 54.189,67.048C53.662,66.266 53.398,65.329 53.398,64.235ZM65.439,64.235L65.439,-4.844L60.01,-4.844L60.01,-6.523L67.002,-6.523L67.002,64.235C67.002,65.042 67.15,65.651 67.446,66.061C67.743,66.471 68.18,66.677 68.76,66.677L72.441,66.677L72.441,68.356L68.76,68.356C67.666,68.356 66.823,67.92 66.23,67.048C65.703,66.266 65.439,65.329 65.439,64.235ZM113.604,67.516L113.604,19.556L108.174,19.556L108.174,17.877L113.604,17.877L113.604,-2.402C113.604,-3.451 113.867,-4.388 114.395,-5.215C114.987,-6.087 115.83,-6.523 116.924,-6.523L123.887,-6.523C124.98,-6.523 125.824,-6.087 126.416,-5.215C126.943,-4.434 127.207,-3.496 127.207,-2.402L127.207,6.035L125.645,6.035L125.645,-2.402C125.645,-3.223 125.495,-3.831 125.195,-4.229C124.902,-4.639 124.466,-4.844 123.887,-4.844L116.924,-4.844C116.344,-4.844 115.907,-4.639 115.61,-4.229C115.314,-3.818 115.166,-3.21 115.166,-2.402L115.166,17.877L147.969,17.877C149.063,17.877 149.906,18.313 150.498,19.185C151.025,19.966 151.289,20.904 151.289,21.998L151.289,64.235C151.289,65.329 151.025,66.266 150.498,67.048C149.906,67.92 149.063,68.356 147.969,68.356L141.006,68.356C139.912,68.356 139.069,67.92 138.477,67.048C137.949,66.266 137.686,65.329 137.686,64.235L137.686,19.556L127.207,19.556L127.207,67.516L125.645,67.516L125.645,19.556L115.166,19.556L115.166,67.516L113.604,67.516ZM147.969,19.556L139.248,19.556L139.248,64.235C139.248,65.042 139.396,65.651 139.692,66.061C139.989,66.471 140.426,66.677 141.006,66.677L147.969,66.677C148.548,66.677 148.986,66.471 149.282,66.061C149.578,65.651 149.727,65.042 149.727,64.235L149.727,21.998C149.727,21.177 149.577,20.569 149.277,20.171C148.984,19.761 148.548,19.556 147.969,19.556ZM29.316,64.235L29.316,21.998C29.316,20.949 29.58,20.012 30.107,19.185C30.7,18.313 31.543,17.877 32.637,17.877L39.6,17.877C40.693,17.877 41.536,18.313 42.129,19.185C42.656,19.966 42.92,20.904 42.92,21.998L42.92,43.956L30.879,43.956L30.879,64.235C30.879,65.042 31.027,65.651 31.323,66.061C31.619,66.471 32.057,66.677 32.637,66.677L42.334,66.677L42.334,68.356L32.637,68.356C31.543,68.356 30.7,67.92 30.107,67.048C29.58,66.266 29.316,65.329 29.316,64.235ZM39.6,19.556L32.637,19.556C32.057,19.556 31.619,19.761 31.323,20.171C31.027,20.582 30.879,21.19 30.879,21.998L30.879,42.277L41.357,42.277L41.357,21.998C41.357,21.177 41.208,20.569 40.908,20.171C40.615,19.761 40.179,19.556 39.6,19.556ZM77.48,64.235L77.48,21.998C77.48,20.949 77.744,20.012 78.271,19.185C78.864,18.313 79.707,17.877 80.801,17.877L87.764,17.877C88.857,17.877 89.701,18.313 90.293,19.185C90.82,19.966 91.084,20.904 91.084,21.998L91.084,64.235C91.084,65.329 90.82,66.266 90.293,67.048C89.701,67.92 88.857,68.356 87.764,68.356L80.801,68.356C79.707,68.356 78.864,67.92 78.271,67.048C77.744,66.266 77.48,65.329 77.48,64.235ZM87.764,19.556L80.801,19.556C80.221,19.556 79.784,19.761 79.487,20.171C79.191,20.582 79.043,21.19 79.043,21.998L79.043,64.235C79.043,65.042 79.191,65.651 79.487,66.061C79.784,66.471 80.221,66.677 80.801,66.677L87.764,66.677C88.343,66.677 88.781,66.471 89.077,66.061C89.373,65.651 89.521,65.042 89.521,64.235L89.521,21.998C89.521,21.177 89.372,20.569 89.072,20.171C88.779,19.761 88.343,19.556 87.764,19.556ZM161.768,67.516L161.768,19.556L156.338,19.556L156.338,17.877L184.092,17.877C185.186,17.877 186.029,18.313 186.621,19.185C187.148,19.966 187.412,20.904 187.412,21.998L187.412,67.516L185.85,67.516L185.85,21.998C185.85,21.177 185.7,20.569 185.4,20.171C185.107,19.761 184.671,19.556 184.092,19.556L175.371,19.556L175.371,67.516L173.809,67.516L173.809,19.556L163.33,19.556L163.33,67.516L161.768,67.516Z" style="fill:rgb(197,200,198);"/>
        </g>
        <g transform="matrix(1,0,0,1,207.4,4)">
            <path d="M53.398,67.516L53.398,-4.844L47.969,-4.844L47.969,-6.523L54.961,-6.523L54.961,17.877L63.682,17.877C64.775,17.877 65.618,18.313 66.211,19.185C66.738,19.966 67.002,20.904 67.002,21.998L67.002,67.516L65.439,67.516L65.439,21.998C65.439,21.177 65.29,20.569 64.99,20.171C64.697,19.761 64.261,19.556 63.682,19.556L54.961,19.556L54.961,67.516L53.398,67.516ZM258.096,67.516L258.096,-4.844L252.666,-4.844L252.666,-6.523L259.658,-6.523L259.658,17.877L268.379,17.877C269.473,17.877 270.316,18.313 270.908,19.185C271.436,19.966 271.699,20.904 271.699,21.998L271.699,67.516L270.137,67.516L270.137,21.998C270.137,21.177 269.987,20.569 269.688,20.171C269.395,19.761 268.958,19.556 268.379,19.556L259.658,19.556L259.658,67.516L258.096,67.516ZM5.234,67.516L5.234,19.556L-0.195,19.556L-0.195,17.877L18.838,17.877L18.838,67.516L17.275,67.516L17.275,19.556L6.797,19.556L6.797,67.516L5.234,67.516ZM29.316,64.235L29.316,21.998C29.316,20.949 29.58,20.012 30.107,19.185C30.7,18.313 31.543,17.877 32.637,17.877L42.92,17.877L42.92,30.435L41.357,30.435L41.357,19.556L32.637,19.556C32.057,19.556 31.619,19.761 31.323,20.171C31.027,20.582 30.879,21.19 30.879,21.998L30.879,64.235C30.879,65.042 31.027,65.651 31.323,66.061C31.619,66.471 32.057,66.677 32.637,66.677L42.334,66.677L42.334,68.356L32.637,68.356C31.543,68.356 30.7,67.92 30.107,67.048C29.58,66.266 29.316,65.329 29.316,64.235ZM125.645,91.916L125.645,19.556L120.215,19.556L120.215,17.877L135.928,17.877C137.021,17.877 137.865,18.313 138.457,19.185C138.984,19.966 139.248,20.904 139.248,21.998L139.248,64.235C139.248,65.329 138.984,66.266 138.457,67.048C137.865,67.92 137.021,68.356 135.928,68.356L127.207,68.356L127.207,91.916L125.645,91.916ZM135.928,19.556L127.207,19.556L127.207,66.677L135.928,66.677C136.507,66.677 136.945,66.471 137.241,66.061C137.537,65.651 137.686,65.042 137.686,64.235L137.686,21.998C137.686,21.177 137.536,20.569 137.236,20.171C136.943,19.761 136.507,19.556 135.928,19.556ZM149.727,64.235L149.727,21.998C149.727,20.949 149.99,20.012 150.518,19.185C151.11,18.313 151.953,17.877 153.047,17.877L160.01,17.877C161.104,17.877 161.947,18.313 162.539,19.185C163.066,19.966 163.33,20.904 163.33,21.998L163.33,64.235C163.33,65.329 163.066,66.266 162.539,67.048C161.947,67.92 161.104,68.356 160.01,68.356L153.047,68.356C151.953,68.356 151.11,67.92 150.518,67.048C149.99,66.266 149.727,65.329 149.727,64.235ZM160.01,19.556L153.047,19.556C152.467,19.556 152.03,19.761 151.733,20.171C151.437,20.582 151.289,21.19 151.289,21.998L151.289,64.235C151.289,65.042 151.437,65.651 151.733,66.061C152.03,66.471 152.467,66.677 153.047,66.677L160.01,66.677C160.589,66.677 161.027,66.471 161.323,66.061C161.619,65.651 161.768,65.042 161.768,64.235L161.768,21.998C161.768,21.177 161.618,20.569 161.318,20.171C161.025,19.761 160.589,19.556 160.01,19.556ZM234.014,91.916L234.014,19.556L228.584,19.556L228.584,17.877L244.297,17.877C245.391,17.877 246.234,18.313 246.826,19.185C247.354,19.966 247.617,20.904 247.617,21.998L247.617,64.235C247.617,65.329 247.354,66.266 246.826,67.048C246.234,67.92 245.391,68.356 244.297,68.356L235.576,68.356L235.576,91.916L234.014,91.916ZM244.297,19.556L235.576,19.556L235.576,66.677L244.297,66.677C244.876,66.677 245.314,66.471 245.61,66.061C245.907,65.651 246.055,65.042 246.055,64.235L246.055,21.998C246.055,21.177 245.905,20.569 245.605,20.171C245.312,19.761 244.876,19.556 244.297,19.556ZM209.932,64.235L209.932,46.398C209.932,45.349 210.195,44.412 210.723,43.585C211.315,42.713 212.158,42.277 213.252,42.277L221.973,42.277L221.973,21.998C221.973,21.177 221.823,20.569 221.523,20.171C221.23,19.761 220.794,19.556 220.215,19.556L216.543,19.556L216.543,17.877L220.215,17.877C221.309,17.877 222.152,18.313 222.744,19.185C223.271,19.966 223.535,20.904 223.535,21.998L223.535,68.356L213.252,68.356C212.158,68.356 211.315,67.92 210.723,67.048C210.195,66.266 209.932,65.329 209.932,64.235ZM221.973,43.956L213.252,43.956C212.673,43.956 212.235,44.161 211.938,44.571C211.642,44.982 211.494,45.59 211.494,46.398L211.494,64.235C211.494,65.042 211.642,65.651 211.938,66.061C212.235,66.471 212.673,66.677 213.252,66.677L221.973,66.677L221.973,43.956ZM89.521,64.235L89.521,19.556L84.092,19.556L84.092,17.877L89.521,17.877L89.521,-5.684L91.084,-5.684L91.084,17.877L103.125,17.877L103.125,64.235C103.125,65.042 103.273,65.651 103.569,66.061C103.866,66.471 104.303,66.677 104.883,66.677L113.604,66.677L113.604,18.716L115.166,18.716L115.166,88.635C115.166,89.729 114.902,90.666 114.375,91.448C113.783,92.32 112.939,92.756 111.846,92.756L101.562,92.756L101.562,78.147L103.125,78.147L103.125,91.077L111.846,91.077C112.425,91.077 112.863,90.871 113.159,90.461C113.455,90.051 113.604,89.442 113.604,88.635L113.604,68.356L104.883,68.356C103.789,68.356 102.946,67.92 102.354,67.048C101.826,66.266 101.562,65.329 101.562,64.235L101.562,19.556L91.084,19.556L91.084,64.235C91.084,65.042 91.232,65.651 91.528,66.061C91.825,66.471 92.262,66.677 92.842,66.677L96.523,66.677L96.523,68.356L92.842,68.356C91.748,68.356 90.905,67.92 90.312,67.048C89.785,66.266 89.521,65.329 89.521,64.235ZM173.809,64.235L173.809,21.998C173.809,20.949 174.072,20.012 174.6,19.185C175.192,18.313 176.035,17.877 177.129,17.877L208.174,17.877C209.268,17.877 210.111,18.313 210.703,19.185C211.23,19.966 211.494,20.904 211.494,21.998L211.494,30.435L209.932,30.435L209.932,21.998C209.932,21.177 209.782,20.569 209.482,20.171C209.189,19.761 208.753,19.556 208.174,19.556L199.453,19.556L199.453,67.516L197.891,67.516L197.891,19.556L187.412,19.556L187.412,88.635C187.412,89.729 187.148,90.666 186.621,91.448C186.029,92.32 185.186,92.756 184.092,92.756L173.809,92.756L173.809,78.147L175.371,78.147L175.371,91.077L184.092,91.077C184.671,91.077 185.109,90.871 185.405,90.461C185.701,90.051 185.85,89.442 185.85,88.635L185.85,68.356L177.129,68.356C176.035,68.356 175.192,67.92 174.6,67.048C174.072,66.266 173.809,65.329 173.809,64.235ZM185.85,19.556L177.129,19.556C176.549,19.556 176.112,19.761 175.815,20.171C175.519,20.582 175.371,21.19 175.371,21.998L175.371,64.235C175.371,65.042 175.519,65.651 175.815,66.061C176.112,66.471 176.549,66.677 177.129,66.677L185.85,66.677L185.85,19.556ZM282.178,64.235L282.178,19.556L276.748,19.556L276.748,17.877L283.74,17.877L283.74,64.235C283.74,65.042 283.888,65.651 284.185,66.061C284.481,66.471 284.919,66.677 285.498,66.677L294.219,66.677L294.219,18.716L295.781,18.716L295.781,88.635C295.781,89.729 295.518,90.666 294.99,91.448C294.398,92.32 293.555,92.756 292.461,92.756L282.178,92.756L282.178,78.147L283.74,78.147L283.74,91.077L292.461,91.077C293.04,91.077 293.478,90.871 293.774,90.461C294.071,90.051 294.219,89.442 294.219,88.635L294.219,68.356L285.498,68.356C284.404,68.356 283.561,67.92 282.969,67.048C282.441,66.266 282.178,65.329 282.178,64.235ZM15.84,-3.945L19.277,-3.945L19.277,0L15.84,0L15.84,-3.945ZM72.051,43.956L72.051,42.277L84.482,42.277L84.482,43.956L72.051,43.956Z" style="fill:rgb(175,0,255);"/>
        </g>
    </g>
</svg>
